<svg preserveAspectRatio="none" overflow="visible" style="display: block;" width="1080" height="1920" viewBox="0 0 1080 1920" fill="none" xmlns="http://www.w3.org/2000/svg">
<path id="Black Overlay" d="M1080 1920H0V0H1080V1920ZM494.75 950.5C482.6 950.5 472.75 960.35 472.75 972.5V1218.5C472.75 1230.65 482.6 1240.5 494.75 1240.5H726.75C738.9 1240.5 748.75 1230.65 748.75 1218.5V972.5C748.75 960.35 738.9 950.5 726.75 950.5H494.75ZM610.736 898.167C607.791 898.158 605.396 900.538 605.387 903.483C605.379 906.087 607.238 908.261 609.704 908.736L609.574 950.374L611.574 950.38L611.704 908.742C614.173 908.282 616.045 906.12 616.053 903.517C616.062 900.571 613.682 898.176 610.736 898.167ZM538.5 897.5H686.5V865.5H538.5V897.5ZM296 281.5C283.85 281.5 274 291.35 274 303.5V759.5C274 771.65 283.85 781.5 296 781.5H817C829.15 781.5 839 771.65 839 759.5V303.5C839 291.35 829.15 281.5 817 281.5H296Z" fill="black" fill-opacity="0.5"/>
</svg>
