<svg preserveAspectRatio="none" overflow="visible" style="display: block;" width="2166" height="2166" viewBox="0 0 2166 2166" fill="none" xmlns="http://www.w3.org/2000/svg">
<g id="Perspective Grid">
<path id="Vector" d="M1 2V2165" stroke="#DDE5EE" stroke-width="2"/>
<path id="Vector_2" d="M56.4586 2V2165" stroke="#DDE5EE" stroke-width="2" stroke-dasharray="4 4"/>
<path id="Vector_3" d="M111.928 2V2165" stroke="#DDE5EE" stroke-width="2"/>
<path id="Vector_4" d="M167.386 2V2165" stroke="#DDE5EE" stroke-width="2" stroke-dasharray="4 4"/>
<path id="Vector_5" d="M222.845 2V2165" stroke="#DDE5EE" stroke-width="4"/>
<path id="Vector_6" d="M278.314 2V2165" stroke="#DDE5EE" stroke-width="2"/>
<path id="Vector_7" d="M333.772 2V2165" stroke="#DDE5EE" stroke-width="2" stroke-dasharray="4 4"/>
<path id="Vector_8" d="M389.231 2V2165" stroke="#DDE5EE" stroke-width="2"/>
<path id="Vector_9" d="M444.69 2V2165" stroke="#DDE5EE" stroke-width="2" stroke-dasharray="4 4"/>
<path id="Vector_10" d="M500.159 2V2165" stroke="#DDE5EE" stroke-width="4"/>
<path id="Vector_11" d="M555.617 2V2165" stroke="#DDE5EE" stroke-width="2"/>
<path id="Vector_12" d="M611.076 2V2165" stroke="#DDE5EE" stroke-width="2" stroke-dasharray="4 4"/>
<path id="Vector_13" d="M666.545 2V2165" stroke="#DDE5EE" stroke-width="2"/>
<path id="Vector_14" d="M722.004 2V2165" stroke="#DDE5EE" stroke-width="2" stroke-dasharray="4 4"/>
<path id="Vector_15" d="M777.462 2V2165" stroke="#DDE5EE" stroke-width="4"/>
<path id="Vector_16" d="M832.921 2V2165" stroke="#DDE5EE" stroke-width="2"/>
<path id="Vector_17" d="M888.39 2V2165" stroke="#DDE5EE" stroke-width="2" stroke-dasharray="4 4"/>
<path id="Vector_18" d="M943.848 2V2165" stroke="#DDE5EE" stroke-width="2"/>
<path id="Vector_19" d="M999.307 2V2165" stroke="#DDE5EE" stroke-width="2" stroke-dasharray="4 4"/>
<path id="Vector_20" d="M1054.78 2V2165" stroke="#DDE5EE" stroke-width="4"/>
<path id="Vector_21" d="M1110.23 2V2165" stroke="#DDE5EE" stroke-width="2"/>
<path id="Vector_22" d="M1165.69 2V2165" stroke="#DDE5EE" stroke-width="2" stroke-dasharray="4 4"/>
<path id="Vector_23" d="M1221.15 2V2165" stroke="#DDE5EE" stroke-width="2"/>
<path id="Vector_24" d="M1276.62 2V2165" stroke="#DDE5EE" stroke-width="2" stroke-dasharray="4 4"/>
<path id="Vector_25" d="M1332.08 2V2165" stroke="#DDE5EE" stroke-width="4"/>
<path id="Vector_26" d="M1387.54 2V2165" stroke="#DDE5EE" stroke-width="2"/>
<path id="Vector_27" d="M1443.01 2V2165" stroke="#DDE5EE" stroke-width="2" stroke-dasharray="4 4"/>
<path id="Vector_28" d="M1498.47 2V2165" stroke="#DDE5EE" stroke-width="2"/>
<path id="Vector_29" d="M1553.92 2V2165" stroke="#DDE5EE" stroke-width="2" stroke-dasharray="4 4"/>
<path id="Vector_30" d="M1609.38 2V2165" stroke="#DDE5EE" stroke-width="4"/>
<path id="Vector_31" d="M1664.85 2V2165" stroke="#DDE5EE" stroke-width="2"/>
<path id="Vector_32" d="M1720.31 2V2165" stroke="#DDE5EE" stroke-width="2" stroke-dasharray="4 4"/>
<path id="Vector_33" d="M1775.77 2V2165" stroke="#DDE5EE" stroke-width="2"/>
<path id="Vector_34" d="M1831.24 2V2165" stroke="#DDE5EE" stroke-width="2" stroke-dasharray="4 4"/>
<path id="Vector_35" d="M1886.7 2V2165" stroke="#DDE5EE" stroke-width="4"/>
<path id="Vector_36" d="M1942.16 2V2165" stroke="#DDE5EE" stroke-width="2"/>
<path id="Vector_37" d="M1997.61 2V2165" stroke="#DDE5EE" stroke-width="2" stroke-dasharray="4 4"/>
<path id="Vector_38" d="M2053.08 2V2165" stroke="#DDE5EE" stroke-width="2"/>
<path id="Vector_39" d="M2108.54 2V2165" stroke="#DDE5EE" stroke-width="2" stroke-dasharray="4 4"/>
<path id="Vector_40" d="M2164 2V2165" stroke="#DDE5EE" stroke-width="4"/>
<path id="Vector_41" d="M1 2165H2164" stroke="#DDE5EE" stroke-width="2"/>
<path id="Vector_42" d="M1 2109.54H2164" stroke="#DDE5EE" stroke-width="2" stroke-dasharray="4 4"/>
<path id="Vector_43" d="M1 2054.08H2164" stroke="#DDE5EE" stroke-width="2"/>
<path id="Vector_44" d="M1 1998.62H2164" stroke="#DDE5EE" stroke-width="2" stroke-dasharray="4 4"/>
<path id="Vector_45" d="M1 1943.15H2164" stroke="#DDE5EE" stroke-width="4"/>
<path id="Vector_46" d="M1 1887.69H2164" stroke="#DDE5EE" stroke-width="2"/>
<path id="Vector_47" d="M1 1832.23H2164" stroke="#DDE5EE" stroke-width="2" stroke-dasharray="4 4"/>
<path id="Vector_48" d="M1 1776.77H2164" stroke="#DDE5EE" stroke-width="2"/>
<path id="Vector_49" d="M1 1721.31H2164" stroke="#DDE5EE" stroke-width="2" stroke-dasharray="4 4"/>
<path id="Vector_50" d="M1 1665.85H2164" stroke="#DDE5EE" stroke-width="4"/>
<path id="Vector_51" d="M1 1610.39H2164" stroke="#DDE5EE" stroke-width="2"/>
<path id="Vector_52" d="M1 1554.92H2164" stroke="#DDE5EE" stroke-width="2" stroke-dasharray="4 4"/>
<path id="Vector_53" d="M1 1499.46H2164" stroke="#DDE5EE" stroke-width="2"/>
<path id="Vector_54" d="M1 1444H2164" stroke="#DDE5EE" stroke-width="2" stroke-dasharray="4 4"/>
<path id="Vector_55" d="M1 1388.54H2164" stroke="#DDE5EE" stroke-width="4"/>
<path id="Vector_56" d="M1 1333.08H2164" stroke="#DDE5EE" stroke-width="2"/>
<path id="Vector_57" d="M1 1277.62H2164" stroke="#DDE5EE" stroke-width="2" stroke-dasharray="4 4"/>
<path id="Vector_58" d="M1 1222.15H2164" stroke="#DDE5EE" stroke-width="2"/>
<path id="Vector_59" d="M1 1166.69H2164" stroke="#DDE5EE" stroke-width="2" stroke-dasharray="4 4"/>
<path id="Vector_60" d="M1 1111.23H2164" stroke="#DDE5EE" stroke-width="4"/>
<path id="Vector_61" d="M1 1055.77H2164" stroke="#DDE5EE" stroke-width="2"/>
<path id="Vector_62" d="M1 1000.31H2164" stroke="#DDE5EE" stroke-width="2" stroke-dasharray="4 4"/>
<path id="Vector_63" d="M1 944.846H2164" stroke="#DDE5EE" stroke-width="2"/>
<path id="Vector_64" d="M1 889.384H2164" stroke="#DDE5EE" stroke-width="2" stroke-dasharray="4 4"/>
<path id="Vector_65" d="M1 833.923H2164" stroke="#DDE5EE" stroke-width="4"/>
<path id="Vector_66" d="M1 778.462H2164" stroke="#DDE5EE" stroke-width="2"/>
<path id="Vector_67" d="M1 723H2164" stroke="#DDE5EE" stroke-width="2" stroke-dasharray="4 4"/>
<path id="Vector_68" d="M1 667.538H2164" stroke="#DDE5EE" stroke-width="2"/>
<path id="Vector_69" d="M1 612.077H2164" stroke="#DDE5EE" stroke-width="2" stroke-dasharray="4 4"/>
<path id="Vector_70" d="M1 556.616H2164" stroke="#DDE5EE" stroke-width="4"/>
<path id="Vector_71" d="M1 501.153H2164" stroke="#DDE5EE" stroke-width="2"/>
<path id="Vector_72" d="M1 445.692H2164" stroke="#DDE5EE" stroke-width="2" stroke-dasharray="4 4"/>
<path id="Vector_73" d="M1 390.231H2164" stroke="#DDE5EE" stroke-width="2"/>
<path id="Vector_74" d="M1 334.769H2164" stroke="#DDE5EE" stroke-width="2" stroke-dasharray="4 4"/>
<path id="Vector_75" d="M1 279.308H2164" stroke="#DDE5EE" stroke-width="4"/>
<path id="Vector_76" d="M1 223.846H2164" stroke="#DDE5EE" stroke-width="2"/>
<path id="Vector_77" d="M1 168.385H2164" stroke="#DDE5EE" stroke-width="2" stroke-dasharray="4 4"/>
<path id="Vector_78" d="M1 112.923H2164" stroke="#DDE5EE" stroke-width="2"/>
<path id="Vector_79" d="M1 57.4619H2164" stroke="#DDE5EE" stroke-width="2" stroke-dasharray="4 4"/>
<path id="Vector_80" d="M1 2H2164" stroke="#DDE5EE" stroke-width="4"/>
</g>
</svg>
