# UnrealEd OBJ exporter (_Internal)



v 17.333704 2.011883 -9.029602

v 17.333702 1.414152 10.611131

v 17.333704 1.814132 10.615159

v 17.333702 1.611903 -9.033628

v 13.551031 0.531178 -10.954049

v 15.408711 1.630116 -10.842982

v 13.551029 1.630116 -10.842982

v 15.408712 0.531178 -10.954049

v 13.551031 0.531178 -10.954049

v 13.551029 1.639175 -11.742936

v 13.551031 0.539231 -11.754008

v 13.551029 1.630116 -10.842982

v 15.408712 0.539231 -11.754008

v 13.551031 0.531178 -10.954049

v 13.551031 0.539231 -11.754008

v 15.408712 0.531178 -10.954049

v 15.408711 1.639175 -11.742936

v 15.408712 0.531178 -10.954049

v 15.408712 0.539231 -11.754008

v 15.408711 1.630116 -10.842982

v 17.333702 1.611903 -9.033628

v -17.333704 2.011883 -9.029602

v -17.333702 1.611903 -9.033628

v 17.333704 2.011883 -9.029602

v -17.333702 1.414152 10.611131

v -17.333704 2.011883 -9.029602

v -17.333704 1.814132 10.615159

v -17.333702 1.611903 -9.033628

v -13.551031 0.531178 -10.954049

v -15.408711 1.630116 -10.842982

v -15.408712 0.531178 -10.954049

v -13.551029 1.630116 -10.842982

v -13.551031 0.531178 -10.954049

v -13.551029 1.639175 -11.742936

v -13.551029 1.630116 -10.842982

v -13.551031 0.539231 -11.754008

v -13.551031 0.531178 -10.954049

v -15.408712 0.539231 -11.754008

v -13.551031 0.539231 -11.754008

v -15.408712 0.531178 -10.954049

v -15.408712 0.531178 -10.954049

v -15.408711 1.639175 -11.742936

v -15.408712 0.539231 -11.754008

v -15.408711 1.630116 -10.842982

v -17.333702 1.414152 10.611131

v 17.333704 1.814132 10.615159

v 17.333702 1.414152 10.611131

v -17.333704 1.814132 10.615159

v -17.343702 1.594043 10.622939

v 17.343702 1.791995 -9.041816

v 17.343702 1.594043 10.622939

v -17.343702 1.791995 -9.041816

v 17.925608 1.403141 11.704999

v 17.888952 1.402693 11.749494

v 17.842510 1.402340 11.784606

v 17.953154 1.403666 11.652827

v 17.788086 1.402074 11.810992

v 17.728115 1.401884 11.829898

v 17.972889 1.404245 11.595277

v 17.986122 1.404856 11.534648

v 17.665028 1.401756 11.842574

v 17.994144 1.405474 11.473233

v 17.601257 1.401679 11.850263

v 17.998268 1.406077 11.413341

v 17.539236 1.401639 11.854209

v 18.000002 1.407145 11.307279

v 17.430157 1.401622 11.855870

v 17.333702 1.414152 10.611131

v -17.430157 1.401622 11.855870

v 17.333702 1.611903 -9.033628

v -17.333702 1.414152 10.611131

v 18.000002 1.633570 -11.186121

v -18.000002 1.407145 11.307279

v -17.539236 1.401639 11.854209

v -17.333702 1.611903 -9.033628

v -17.998268 1.406077 11.413341

v -17.601257 1.401679 11.850263

v -17.994144 1.405474 11.473233

v -17.665028 1.401756 11.842574

v -17.986122 1.404856 11.534648

v -17.728115 1.401884 11.829898

v -17.972889 1.404245 11.595277

v -17.788086 1.402074 11.810992

v -17.953154 1.403666 11.652827

v -17.842510 1.402340 11.784606

v -17.925608 1.403141 11.704999

v -17.888952 1.402693 11.749494

v -18.000002 1.633570 -11.186121

v -17.430159 1.639175 -11.742936

v -17.539234 1.639158 -11.741250

v -17.998270 1.634655 -11.293873

v -17.994146 1.635267 -11.354687

v -17.601257 1.639118 -11.737245

v -17.665030 1.639040 -11.729445

v -17.986122 1.635895 -11.417021

v -17.728115 1.638910 -11.716588

v -17.972889 1.636514 -11.478549

v -17.953156 1.637102 -11.536942

v -17.788086 1.638717 -11.697407

v -17.925606 1.637635 -11.589873

v -17.842506 1.638448 -11.670637

v -17.888952 1.638089 -11.635015

v -15.408711 1.639175 -11.742936

v -15.408711 1.630116 -10.842982

v -13.551029 1.630116 -10.842982

v -13.551029 1.639175 -11.742936

v 13.551029 1.639175 -11.742936

v 13.551029 1.630116 -10.842982

v 15.408711 1.630116 -10.842982

v 17.430159 1.639175 -11.742936

v 15.408711 1.639175 -11.742936

v 17.539234 1.639158 -11.741250

v 17.998270 1.634655 -11.293873

v 17.601257 1.639118 -11.737245

v 17.994146 1.635267 -11.354687

v 17.986122 1.635895 -11.417021

v 17.665030 1.639040 -11.729445

v 17.972889 1.636514 -11.478549

v 17.728115 1.638910 -11.716588

v 17.788086 1.638717 -11.697407

v 17.953156 1.637102 -11.536942

v 17.842506 1.638448 -11.670637

v 17.925606 1.637635 -11.589873

v 17.888952 1.638089 -11.635015

v -17.925608 2.103104 11.712045

v -17.888952 2.102656 11.756537

v -17.842510 2.102303 11.791652

v -17.953154 2.103629 11.659873

v -17.788086 2.102037 11.818036

v -17.728115 2.101847 11.836944

v -17.972889 2.104208 11.602321

v -17.986122 2.104819 11.541694

v -17.665030 2.101719 11.849620

v -17.994144 2.105437 11.480279

v -17.601259 2.101642 11.857306

v -17.998268 2.106040 11.420386

v -17.539236 2.101602 11.861257

v -18.000002 2.107108 11.314324

v -17.430159 2.101585 11.862916

v -18.000002 2.333534 -11.179075

v -17.430159 2.339139 -11.735890

v 17.430159 2.101585 11.862916

v -17.539234 2.339122 -11.734204

v -17.998270 2.334619 -11.286827

v 17.430159 2.339139 -11.735890

v -17.994146 2.335231 -11.347640

v -17.601259 2.339082 -11.730199

v -17.665030 2.339004 -11.722400

v -17.986120 2.335858 -11.409975

v -17.728115 2.338874 -11.709542

v -17.972891 2.336478 -11.471502

v -17.953154 2.337066 -11.529896

v -17.788086 2.338681 -11.690360

v -17.925608 2.337598 -11.582827

v -17.842510 2.338412 -11.663591

v -17.888954 2.338053 -11.627969

v 18.000002 2.333534 -11.179075

v 17.539234 2.339122 -11.734204

v 18.000002 2.107108 11.314324

v 17.998270 2.334619 -11.286827

v 17.539236 2.101602 11.861257

v 17.601259 2.339082 -11.730199

v 17.998268 2.106040 11.420386

v 17.994146 2.335231 -11.347640

v 17.601259 2.101642 11.857306

v 17.665030 2.339004 -11.722400

v 17.994144 2.105437 11.480279

v 17.986120 2.335858 -11.409975

v 17.665030 2.101719 11.849620

v 17.728115 2.338874 -11.709542

v 17.986122 2.104819 11.541694

v 17.972891 2.336478 -11.471502

v 17.728115 2.101847 11.836944

v 17.788086 2.338681 -11.690360

v 17.972889 2.104208 11.602321

v 17.953154 2.337066 -11.529896

v 17.788086 2.102037 11.818036

v 17.842510 2.338412 -11.663591

v 17.953154 2.103629 11.659873

v 17.925608 2.337598 -11.582827

v 17.888954 2.338053 -11.627969

v 17.842510 2.102303 11.791652

v 17.925608 2.103104 11.712045

v 17.888952 2.102656 11.756537

v 17.665030 1.639040 -11.729445

v 17.601259 2.339082 -11.730199

v 17.665030 2.339004 -11.722400

v 17.601257 1.639118 -11.737245

v 17.539234 2.339122 -11.734204

v 17.539234 1.639158 -11.741250

v 17.430159 2.339139 -11.735890

v 17.430159 1.639175 -11.742936

v 15.408711 1.639175 -11.742936

v 13.551031 0.539231 -11.754008

v 15.408712 0.539231 -11.754008

v 13.551029 1.639175 -11.742936

v -13.551029 1.639175 -11.742936

v -17.430159 2.339139 -11.735890

v -15.408711 1.639175 -11.742936

v -13.551031 0.539231 -11.754008

v -15.408712 0.539231 -11.754008

v -17.430159 1.639175 -11.742936

v -17.539234 1.639158 -11.741250

v -17.539234 2.339122 -11.734204

v -17.601257 1.639118 -11.737245

v -17.601259 2.339082 -11.730199

v -17.665030 1.639040 -11.729445

v -17.665030 2.339004 -11.722400

v -17.728115 1.638910 -11.716588

v -17.728115 2.338874 -11.709542

v -17.788086 1.638717 -11.697407

v -17.788086 2.338681 -11.690360

v -17.842506 1.638448 -11.670637

v -17.842510 2.338412 -11.663591

v -17.888952 1.638089 -11.635015

v -17.888954 2.338053 -11.627969

v -17.925606 1.637635 -11.589873

v -17.925608 2.337598 -11.582827

v -17.953156 1.637102 -11.536942

v -17.953154 2.337066 -11.529896

v -17.972891 2.336478 -11.471502

v -17.972889 1.636514 -11.478549

v -17.986120 2.335858 -11.409975

v -17.986122 1.635895 -11.417021

v -17.994146 2.335231 -11.347640

v -17.994146 1.635267 -11.354687

v -17.998270 1.634655 -11.293873

v -17.998270 2.334619 -11.286827

v -18.000002 2.333534 -11.179075

v -18.000002 1.633570 -11.186121

v -18.000002 2.107108 11.314324

v -18.000002 1.407145 11.307279

v -17.998268 2.106040 11.420386

v -17.998268 1.406077 11.413341

v -17.994144 2.105437 11.480279

v -17.994144 1.405474 11.473233

v -17.986122 2.104819 11.541694

v -17.986122 1.404856 11.534648

v -17.972889 2.104208 11.602321

v -17.972889 1.404245 11.595277

v -17.953154 2.103629 11.659873

v -17.953154 1.403666 11.652827

v -17.925608 2.103104 11.712045

v -17.925608 1.403141 11.704999

v -17.888952 2.102656 11.756537

v -17.888952 1.402693 11.749494

v -17.842510 2.102303 11.791652

v -17.842510 1.402340 11.784606

v -17.788086 1.402074 11.810992

v -17.788086 2.102037 11.818036

v -17.728115 2.101847 11.836944

v -17.728115 1.401884 11.829898

v -17.665030 2.101719 11.849620

v -17.665028 1.401756 11.842574

v 7.850314 1.305413 11.562642

v 7.822218 1.405856 11.519071

v 7.857745 1.305504 11.553588

v 7.808539 1.405689 11.535737

v 7.844791 1.305309 11.572974

v 7.798374 1.405497 11.554753

v 7.792114 1.405290 11.575387

v 7.841391 1.305196 11.584184

v 7.790001 1.405074 11.596847

v 7.840243 1.305079 11.595841

v 7.841391 1.304961 11.607499

v 7.792114 1.404858 11.618308

v 7.844791 1.304848 11.618711

v 7.798374 1.404650 11.638942

v 7.808539 1.404458 11.657956

v 7.850314 1.304744 11.629039

v 7.857745 1.304653 11.638095

v 7.822218 1.404291 11.674624

v 7.838888 1.404153 11.688304

v 7.866801 1.304578 11.645526

v 7.857905 1.404051 11.698470

v 7.877132 1.304523 11.651048

v 7.878541 1.403988 11.704728

v 7.888342 1.304489 11.654447

v 7.900001 1.403966 11.706843

v 7.902457 1.304475 11.655837

v 9.697544 1.304475 11.655837

v 9.700001 1.403966 11.706843

v 9.711658 1.304489 11.654447

v 9.721461 1.403988 11.704728

v 9.722869 1.304523 11.651048

v 9.742096 1.404051 11.698470

v 9.733201 1.304578 11.645526

v 9.761114 1.404153 11.688304

v 9.742256 1.304653 11.638095

v 9.777782 1.404291 11.674626

v 9.791462 1.404458 11.657956

v 9.749687 1.304744 11.629039

v 9.755210 1.304848 11.618711

v 9.801628 1.404650 11.638942

v 9.807887 1.404858 11.618308

v 9.758611 1.304961 11.607499

v 9.810000 1.405074 11.596847

v 9.759758 1.305079 11.595841

v 9.758611 1.305196 11.584184

v 9.807887 1.405290 11.575389

v 9.755210 1.305309 11.572974

v 9.801628 1.405497 11.554753

v 9.749688 1.305413 11.562642

v 9.791462 1.405689 11.535737

v 9.777782 1.405856 11.519071

v 9.742256 1.305504 11.553588

v 9.733201 1.305579 11.546157

v 9.761114 1.405994 11.505389

v 9.722869 1.305634 11.540635

v 9.742096 1.406096 11.495225

v 9.721461 1.406160 11.488967

v 9.711658 1.305669 11.537234

v 9.700001 1.406181 11.486852

v 9.697544 1.305683 11.535844

v 7.902457 1.305683 11.535844

v 7.900001 1.406181 11.486852

v 7.888342 1.305669 11.537234

v 7.878541 1.406160 11.488967

v 7.877132 1.305634 11.540635

v 7.857905 1.406096 11.495225

v 7.838888 1.405994 11.505389

v 7.866801 1.305579 11.546157

v 7.822218 1.405856 11.519071

v 7.857745 1.305504 11.553588

v -7.822218 1.405856 11.519071

v -7.850314 1.305413 11.562642

v -7.857745 1.305504 11.553588

v -7.808539 1.405689 11.535737

v -7.844791 1.305309 11.572974

v -7.798374 1.405497 11.554753

v -7.792114 1.405290 11.575387

v -7.841391 1.305196 11.584184

v -7.790001 1.405074 11.596847

v -7.840243 1.305079 11.595841

v -7.841391 1.304961 11.607499

v -7.792114 1.404858 11.618308

v -7.844791 1.304848 11.618711

v -7.798374 1.404650 11.638942

v -7.808539 1.404458 11.657956

v -7.850314 1.304744 11.629039

v -7.857745 1.304653 11.638095

v -7.822218 1.404291 11.674624

v -7.838888 1.404153 11.688304

v -7.866801 1.304578 11.645526

v -7.857905 1.404051 11.698470

v -7.877132 1.304523 11.651048

v -7.878541 1.403988 11.704728

v -7.888342 1.304489 11.654447

v -7.900001 1.403966 11.706843

v -7.902457 1.304475 11.655837

v -9.697544 1.304475 11.655837

v -9.700001 1.403966 11.706843

v -9.711658 1.304489 11.654447

v -9.721461 1.403988 11.704728

v -9.722869 1.304523 11.651048

v -9.742096 1.404051 11.698470

v -9.733201 1.304578 11.645526

v -9.761114 1.404153 11.688304

v -9.742256 1.304653 11.638095

v -9.777782 1.404291 11.674626

v -9.791462 1.404458 11.657956

v -9.749687 1.304744 11.629039

v -9.755210 1.304848 11.618711

v -9.801628 1.404650 11.638942

v -9.807887 1.404858 11.618308

v -9.758611 1.304961 11.607499

v -9.810000 1.405074 11.596847

v -9.759758 1.305079 11.595841

v -9.758611 1.305196 11.584184

v -9.807887 1.405290 11.575389

v -9.755210 1.305309 11.572974

v -9.801628 1.405497 11.554753

v -9.749688 1.305413 11.562642

v -9.791462 1.405689 11.535737

v -9.777782 1.405856 11.519071

v -9.742256 1.305504 11.553588

v -9.733201 1.305579 11.546157

v -9.761114 1.405994 11.505389

v -9.722869 1.305634 11.540635

v -9.742096 1.406096 11.495225

v -9.721461 1.406160 11.488967

v -9.711658 1.305669 11.537234

v -9.700001 1.406181 11.486852

v -9.697544 1.305683 11.535844

v -7.902457 1.305683 11.535844

v -7.900001 1.406181 11.486852

v -7.888342 1.305669 11.537234

v -7.878541 1.406160 11.488967

v -7.877132 1.305634 11.540635

v -7.857905 1.406096 11.495225

v -7.838888 1.405994 11.505389

v -7.866801 1.305579 11.546157

v -7.822218 1.405856 11.519071

v -7.857745 1.305504 11.553588

v 17.728115 1.638910 -11.716588

v 17.665030 1.639040 -11.729445

v 17.665030 2.339004 -11.722400

v 17.728115 2.338874 -11.709542

v 17.788086 1.638717 -11.697407

v 17.788086 2.338681 -11.690360

v 17.842506 1.638448 -11.670637

v 17.842510 2.338412 -11.663591

v 17.888952 1.638089 -11.635015

v 17.888954 2.338053 -11.627969

v 17.925606 1.637635 -11.589873

v 17.925608 2.337598 -11.582827

v 17.953156 1.637102 -11.536942

v 17.953154 2.337066 -11.529896

v 17.972891 2.336478 -11.471502

v 17.972889 1.636514 -11.478549

v 17.986120 2.335858 -11.409975

v 17.986122 1.635895 -11.417021

v 17.994146 2.335231 -11.347640

v 17.994146 1.635267 -11.354687

v 17.998270 1.634655 -11.293873

v 17.998270 2.334619 -11.286827

v 18.000002 2.333534 -11.179075

v 18.000002 1.633570 -11.186121

v 18.000002 2.107108 11.314324

v 18.000002 1.407145 11.307279

v 17.998268 2.106040 11.420386

v 17.998268 1.406077 11.413341

v 17.994144 2.105437 11.480279

v 17.994144 1.405474 11.473233

v 17.986122 2.104819 11.541694

v 17.986122 1.404856 11.534648

v 17.972889 2.104208 11.602321

v 17.972889 1.404245 11.595277

v 17.953154 2.103629 11.659873

v 17.953154 1.403666 11.652827

v 17.925608 2.103104 11.712045

v 17.925608 1.403141 11.704999

v 17.888952 2.102656 11.756537

v 17.888952 1.402693 11.749494

v 17.842510 2.102303 11.791652

v 17.842510 1.402340 11.784606

v 17.788086 1.402074 11.810992

v 17.788086 2.102037 11.818036

v 17.728115 2.101847 11.836944

v 17.728115 1.401884 11.829898

v 17.665030 2.101719 11.849620

v 17.665028 1.401756 11.842574

v 17.601259 2.101642 11.857306

v 17.601257 1.401679 11.850263

v 17.539236 2.101602 11.861257

v 17.539236 1.401639 11.854209

v 17.430159 2.101585 11.862916

v 17.430157 1.401622 11.855870

v -17.430159 2.101585 11.862916

v -17.430157 1.401622 11.855870

v -17.539236 1.401639 11.854209

v -17.539236 2.101602 11.861257

v -17.601257 1.401679 11.850263

v -17.601259 2.101642 11.857306

v -17.665028 1.401756 11.842574

v -17.665030 2.101719 11.849620

v 17.654758 1.431653 -0.978191

v 17.626663 1.532097 -1.021764

v 17.662189 1.431745 -0.987248

v 17.612984 1.531929 -1.005096

v 17.602819 1.531738 -0.986081

v 17.649237 1.431549 -0.967860

v 17.645836 1.431437 -0.956652

v 17.596560 1.531530 -0.965446

v 17.594446 1.531314 -0.943988

v 17.644445 1.431294 -0.942538

v 17.644445 1.413225 0.852459

v 17.594446 1.513196 0.855922

v 17.645836 1.413083 0.866572

v 17.596560 1.512980 0.877381

v 17.649237 1.412970 0.877782

v 17.602819 1.512772 0.898015

v 17.654758 1.412866 0.888114

v 17.612984 1.512580 0.917032

v 17.626663 1.512413 0.933701

v 17.662189 1.412775 0.897168

v 17.643333 1.512275 0.947379

v 17.671247 1.412701 0.904600

v 17.681578 1.412645 0.910121

v 17.662352 1.512173 0.957543

v 17.682985 1.512110 0.963803

v 17.692787 1.412611 0.913522

v 17.704447 1.412599 0.914670

v 17.704447 1.512088 0.965917

v 17.725906 1.512110 0.963803

v 17.716105 1.412611 0.913522

v 17.727314 1.412645 0.910121

v 17.746540 1.512173 0.957543

v 17.737646 1.412701 0.904600

v 17.765560 1.512275 0.947379

v 17.782228 1.512413 0.933701

v 17.746700 1.412775 0.897168

v 17.754133 1.412866 0.888114

v 17.795906 1.512580 0.917032

v 17.806072 1.512772 0.898015

v 17.759655 1.412970 0.877782

v 17.812332 1.512980 0.877381

v 17.763056 1.413083 0.866572

v 17.814447 1.513196 0.855922

v 17.764446 1.413225 0.852459

v 17.814445 1.531314 -0.943988

v 17.764446 1.431294 -0.942538

v 17.763056 1.431437 -0.956652

v 17.812332 1.531530 -0.965446

v 17.806072 1.531738 -0.986081

v 17.759655 1.431549 -0.967860

v 17.754133 1.431653 -0.978191

v 17.795906 1.531929 -1.005096

v 17.782228 1.532097 -1.021764

v 17.746700 1.431745 -0.987248

v 17.765560 1.532235 -1.035442

v 17.737646 1.431819 -0.994678

v 17.727314 1.431875 -1.000200

v 17.746540 1.532337 -1.045609

v 17.716105 1.431909 -1.003600

v 17.725906 1.532400 -1.051869

v 17.704447 1.532421 -1.053982

v 17.704447 1.431921 -1.004748

v 17.692787 1.431909 -1.003600

v 17.682985 1.532400 -1.051869

v 17.662352 1.532337 -1.045609

v 17.681576 1.431875 -1.000200

v 17.643333 1.532235 -1.035442

v 17.671247 1.431819 -0.994678

v 17.662189 1.431745 -0.987248

v 17.626663 1.532097 -1.021764

v -17.626663 1.532097 -1.021764

v -17.654758 1.431653 -0.978191

v -17.662189 1.431745 -0.987248

v -17.612984 1.531929 -1.005096

v -17.602819 1.531738 -0.986081

v -17.649237 1.431549 -0.967860

v -17.645836 1.431437 -0.956652

v -17.596560 1.531530 -0.965446

v -17.594446 1.531314 -0.943988

v -17.644445 1.431294 -0.942538

v -17.644445 1.413225 0.852459

v -17.594446 1.513196 0.855922

v -17.645836 1.413083 0.866572

v -17.596560 1.512980 0.877381

v -17.649237 1.412970 0.877782

v -17.602819 1.512772 0.898015

v -17.654758 1.412866 0.888114

v -17.612984 1.512580 0.917032

v -17.626663 1.512413 0.933701

v -17.662189 1.412775 0.897168

v -17.643333 1.512275 0.947379

v -17.671247 1.412701 0.904600

v -17.681578 1.412645 0.910121

v -17.662352 1.512173 0.957543

v -17.682985 1.512110 0.963803

v -17.692787 1.412611 0.913522

v -17.704447 1.412599 0.914670

v -17.704447 1.512088 0.965917

v -17.725906 1.512110 0.963803

v -17.716105 1.412611 0.913522

v -17.727314 1.412645 0.910121

v -17.746540 1.512173 0.957543

v -17.737646 1.412701 0.904600

v -17.765560 1.512275 0.947379

v -17.782228 1.512413 0.933701

v -17.746700 1.412775 0.897168

v -17.754133 1.412866 0.888114

v -17.795906 1.512580 0.917032

v -17.806072 1.512772 0.898015

v -17.759655 1.412970 0.877782

v -17.812332 1.512980 0.877381

v -17.763056 1.413083 0.866572

v -17.814447 1.513196 0.855922

v -17.764446 1.413225 0.852459

v -17.814445 1.531314 -0.943988

v -17.764446 1.431294 -0.942538

v -17.763056 1.431437 -0.956652

v -17.812332 1.531530 -0.965446

v -17.806072 1.531738 -0.986081

v -17.759655 1.431549 -0.967860

v -17.754133 1.431653 -0.978191

v -17.795906 1.531929 -1.005096

v -17.782228 1.532097 -1.021764

v -17.746700 1.431745 -0.987248

v -17.765560 1.532235 -1.035442

v -17.737646 1.431819 -0.994678

v -17.727314 1.431875 -1.000200

v -17.746540 1.532337 -1.045609

v -17.716105 1.431909 -1.003600

v -17.725906 1.532400 -1.051869

v -17.704447 1.532421 -1.053982

v -17.704447 1.431921 -1.004748

v -17.692787 1.431909 -1.003600

v -17.682985 1.532400 -1.051869

v -17.662352 1.532337 -1.045609

v -17.681576 1.431875 -1.000200

v -17.643333 1.532235 -1.035442

v -17.671247 1.431819 -0.994678

v -17.662189 1.431745 -0.987248

v -17.626663 1.532097 -1.021764

v 7.844791 1.305309 11.572974

v 7.857745 1.305504 11.553588

v 7.877132 1.305634 11.540635

v 7.877132 1.304523 11.651048

v 7.840243 1.305079 11.595841

v 7.844791 1.304848 11.618711

v 7.850314 1.304744 11.629039

v 7.902457 1.305683 11.535844

v 7.902457 1.304475 11.655837

v 9.697544 1.304475 11.655837

v 9.697544 1.305683 11.535844

v 9.711658 1.304489 11.654447

v 9.711658 1.305669 11.537234

v 9.733201 1.305579 11.546157

v 9.749687 1.304744 11.629039

v 9.733201 1.304578 11.645526

v 9.758611 1.305196 11.584184

v 9.742256 1.305504 11.553588

v 9.759758 1.305079 11.595841

v 17.692787 1.431909 -1.003600

v 17.704447 1.431921 -1.004748

v 17.737646 1.431819 -0.994678

v 17.671247 1.431819 -0.994678

v 17.654758 1.431653 -0.978191

v 17.763056 1.431437 -0.956652

v 17.759655 1.431549 -0.967860

v 17.645836 1.431437 -0.956652

v 17.644445 1.431294 -0.942538

v 17.764446 1.431294 -0.942538

v 17.644445 1.413225 0.852459

v 17.764446 1.413225 0.852459

v 17.759655 1.412970 0.877782

v 17.649237 1.412970 0.877782

v 17.681578 1.412645 0.910121

v 17.671247 1.412701 0.904600

v 17.727314 1.412645 0.910121

v 17.746700 1.412775 0.897168

v 17.704447 1.412599 0.914670

v -7.844791 1.305309 11.572974

v -7.841391 1.305196 11.584184

v -7.844791 1.304848 11.618711

v -7.857745 1.305504 11.553588

v -7.877132 1.305634 11.540635

v -7.850314 1.304744 11.629039

v -7.877132 1.304523 11.651048

v -7.902457 1.304475 11.655837

v -7.902457 1.305683 11.535844

v -9.697544 1.304475 11.655837

v -9.697544 1.305683 11.535844

v -9.711658 1.304489 11.654447

v -9.711658 1.305669 11.537234

v -9.733201 1.305579 11.546157

v -9.742256 1.305504 11.553588

v -9.758611 1.305196 11.584184

v -9.749687 1.304744 11.629039

v -9.722869 1.304523 11.651048

v -9.759758 1.305079 11.595841

v -17.704447 1.431921 -1.004748

v -17.692787 1.431909 -1.003600

v -17.737646 1.431819 -0.994678

v -17.671247 1.431819 -0.994678

v -17.654758 1.431653 -0.978191

v -17.763056 1.431437 -0.956652

v -17.759655 1.431549 -0.967860

v -17.645836 1.431437 -0.956652

v -17.644445 1.431294 -0.942538

v -17.764446 1.431294 -0.942538

v -17.644445 1.413225 0.852459

v -17.764446 1.413225 0.852459

v -17.649237 1.412970 0.877782

v -17.759655 1.412970 0.877782

v -17.727314 1.412645 0.910121

v -17.746700 1.412775 0.897168

v -17.681578 1.412645 0.910121

v -17.671247 1.412701 0.904600

v -17.704447 1.412599 0.914670



vt 0.879883 0.413574

vt 0.874512 0.152344

vt 0.879883 0.152344

vt 0.874512 0.413574

vt 0.537109 0.629150

vt 0.551758 0.604492

vt 0.551758 0.629150

vt 0.537109 0.604492

vt 0.901367 0.334473

vt 0.915527 0.346191

vt 0.901367 0.346191

vt 0.915527 0.334473

vt 0.560059 0.615234

vt 0.584473 0.604492

vt 0.584473 0.615234

vt 0.560059 0.604492

vt 0.750977 0.685547

vt 0.766113 0.674561

vt 0.766113 0.685547

vt 0.750977 0.674561

vt 0.825195 0.613281

vt 0.819824 0.152344

vt 0.825195 0.152344

vt 0.819824 0.613281

vt 0.893066 0.152344

vt 0.887695 0.413574

vt 0.887695 0.152344

vt 0.893066 0.413574

vt 0.514648 0.604492

vt 0.529297 0.629150

vt 0.514648 0.629150

vt 0.529297 0.604492

vt 0.728027 0.685547

vt 0.743164 0.674561

vt 0.743164 0.685547

vt 0.728027 0.674561

vt 0.617188 0.615234

vt 0.592773 0.604492

vt 0.617188 0.604492

vt 0.592773 0.615234

vt 0.789062 0.685547

vt 0.773926 0.674561

vt 0.789062 0.674561

vt 0.773926 0.685547

vt 0.833496 0.152344

vt 0.838379 0.613281

vt 0.833496 0.613281

vt 0.838379 0.152344

vt 0.004002 0.914001

vt 0.465088 0.652588

vt 0.465088 0.914001

vt 0.004002 0.652588

vt 0.484375 0.650635

vt 0.484863 0.649902

vt 0.485596 0.649414

vt 0.484131 0.651367

vt 0.486328 0.649170

vt 0.487061 0.648926

vt 0.483887 0.652100

vt 0.483643 0.652832

vt 0.488037 0.648682

vt 0.483643 0.653564

vt 0.488770 0.648682

vt 0.483398 0.654541

vt 0.489502 0.648682

vt 0.483398 0.655762

vt 0.490967 0.648682

vt 0.492432 0.665039

vt 0.954590 0.648682

vt 0.492432 0.926331

vt 0.953125 0.665039

vt 0.483398 0.954926

vt 0.961914 0.655762

vt 0.956055 0.648682

vt 0.953125 0.926331

vt 0.961914 0.654541

vt 0.957031 0.648682

vt 0.961914 0.653564

vt 0.957520 0.648682

vt 0.961914 0.652832

vt 0.958496 0.648926

vt 0.961914 0.652100

vt 0.959473 0.649170

vt 0.961426 0.651367

vt 0.959961 0.649414

vt 0.960938 0.650635

vt 0.960449 0.649902

vt 0.961914 0.954926

vt 0.954590 0.962341

vt 0.956055 0.962311

vt 0.961914 0.956360

vt 0.961914 0.957153

vt 0.957031 0.962250

vt 0.957520 0.962158

vt 0.961914 0.958008

vt 0.958496 0.961975

vt 0.961914 0.958801

vt 0.961426 0.959595

vt 0.959473 0.961731

vt 0.960938 0.960297

vt 0.959961 0.961365

vt 0.960449 0.960907

vt 0.927734 0.962341

vt 0.927734 0.950348

vt 0.902832 0.950348

vt 0.902832 0.962341

vt 0.542480 0.962341

vt 0.542480 0.950348

vt 0.517578 0.950348

vt 0.490967 0.962341

vt 0.517578 0.962341

vt 0.489502 0.962311

vt 0.483398 0.956360

vt 0.488770 0.962250

vt 0.483643 0.957153

vt 0.483643 0.958008

vt 0.488037 0.962158

vt 0.483887 0.958801

vt 0.487061 0.961975

vt 0.486328 0.961731

vt 0.484131 0.959595

vt 0.485596 0.961365

vt 0.484375 0.960297

vt 0.484863 0.960907

vt 0.810059 0.005371

vt 0.810547 0.005859

vt 0.811035 0.006348

vt 0.809082 0.004883

vt 0.811523 0.006836

vt 0.811523 0.007812

vt 0.808594 0.004395

vt 0.807617 0.004395

vt 0.811523 0.008789

vt 0.806641 0.004395

vt 0.812012 0.009766

vt 0.806152 0.004395

vt 0.812012 0.010254

vt 0.804688 0.004395

vt 0.812012 0.011719

vt 0.505371 0.004395

vt 0.498291 0.011719

vt 0.812012 0.475586

vt 0.498291 0.010254

vt 0.503906 0.004395

vt 0.498291 0.475586

vt 0.503418 0.004395

vt 0.498291 0.009766

vt 0.498291 0.008789

vt 0.502441 0.004395

vt 0.498535 0.007812

vt 0.501465 0.004395

vt 0.500977 0.004883

vt 0.498779 0.006836

vt 0.500000 0.005371

vt 0.499023 0.006348

vt 0.499512 0.005859

vt 0.505371 0.482910

vt 0.498291 0.477051

vt 0.804688 0.482910

vt 0.503906 0.482910

vt 0.812012 0.477051

vt 0.498291 0.477539

vt 0.806152 0.482910

vt 0.503418 0.482910

vt 0.812012 0.477539

vt 0.498291 0.478516

vt 0.806641 0.482910

vt 0.502441 0.482910

vt 0.811523 0.478516

vt 0.498535 0.479492

vt 0.807617 0.482910

vt 0.501465 0.482422

vt 0.811523 0.479492

vt 0.498779 0.479980

vt 0.808594 0.482422

vt 0.500977 0.482422

vt 0.811523 0.479980

vt 0.499023 0.480957

vt 0.809082 0.482422

vt 0.500000 0.481934

vt 0.499512 0.481445

vt 0.811035 0.480957

vt 0.810059 0.481934

vt 0.810547 0.481445

vt 0.003998 0.969299

vt 0.004852 0.978622

vt 0.003998 0.978622

vt 0.004852 0.969299

vt 0.005676 0.978622

vt 0.005676 0.969299

vt 0.007130 0.978622

vt 0.007130 0.969299

vt 0.033997 0.969299

vt 0.058716 0.954681

vt 0.033997 0.954681

vt 0.058716 0.969315

vt 0.418945 0.969315

vt 0.470703 0.978622

vt 0.443848 0.969315

vt 0.418945 0.954681

vt 0.443848 0.954681

vt 0.470703 0.969315

vt 0.472168 0.969315

vt 0.472168 0.978622

vt 0.472900 0.969315

vt 0.472900 0.978622

vt 0.473877 0.969315

vt 0.473877 0.978622

vt 0.474609 0.969315

vt 0.474609 0.978622

vt 0.475586 0.969315

vt 0.475586 0.978622

vt 0.476318 0.969315

vt 0.476318 0.978622

vt 0.477051 0.969315

vt 0.477051 0.978622

vt 0.477783 0.969315

vt 0.477783 0.978622

vt 0.478516 0.969315

vt 0.478516 0.978622

vt 0.479492 0.978622

vt 0.479492 0.969315

vt 0.480225 0.978622

vt 0.480225 0.969315

vt 0.481201 0.978622

vt 0.481201 0.969315

vt 0.481934 0.969315

vt 0.481934 0.978622

vt 0.483398 0.978622

vt 0.483398 0.969315

vt 0.782227 0.978622

vt 0.782227 0.969315

vt 0.783691 0.978622

vt 0.783691 0.969315

vt 0.784668 0.978622

vt 0.784668 0.969315

vt 0.785645 0.978622

vt 0.785645 0.969315

vt 0.786133 0.978622

vt 0.786133 0.969315

vt 0.787109 0.978622

vt 0.787109 0.969315

vt 0.788086 0.978622

vt 0.788086 0.969315

vt 0.788574 0.978622

vt 0.788574 0.969315

vt 0.789551 0.978622

vt 0.789551 0.969315

vt 0.790039 0.969315

vt 0.790039 0.978622

vt 0.791016 0.978622

vt 0.791016 0.969315

vt 0.791992 0.978622

vt 0.791992 0.969315

vt 0.912109 0.244629

vt 0.910645 0.244629

vt 0.912109 0.244629

vt 0.910645 0.244629

vt 0.912109 0.244629

vt 0.910645 0.244629

vt 0.910645 0.245117

vt 0.912109 0.245117

vt 0.910645 0.245117

vt 0.912109 0.245117

vt 0.912109 0.245605

vt 0.910645 0.245605

vt 0.912109 0.245605

vt 0.910645 0.245605

vt 0.910645 0.246094

vt 0.912109 0.246094

vt 0.912109 0.246094

vt 0.910645 0.246094

vt 0.910645 0.246582

vt 0.912109 0.246582

vt 0.910645 0.246582

vt 0.912109 0.246582

vt 0.910645 0.247070

vt 0.912109 0.247070

vt 0.910645 0.247070

vt 0.912109 0.247070

vt 0.912109 0.270996

vt 0.910645 0.270996

vt 0.912109 0.270996

vt 0.910645 0.270996

vt 0.912109 0.271484

vt 0.910645 0.271484

vt 0.912109 0.271484

vt 0.910645 0.271484

vt 0.912109 0.271973

vt 0.910645 0.271973

vt 0.910645 0.271973

vt 0.912109 0.271973

vt 0.912109 0.272461

vt 0.910645 0.272461

vt 0.910645 0.272461

vt 0.912109 0.272461

vt 0.910645 0.272949

vt 0.912109 0.272949

vt 0.912109 0.272949

vt 0.910645 0.272949

vt 0.912109 0.273438

vt 0.910645 0.273438

vt 0.912109 0.273438

vt 0.910645 0.273438

vt 0.910645 0.273438

vt 0.912109 0.273438

vt 0.912109 0.273926

vt 0.910645 0.273926

vt 0.912109 0.273926

vt 0.910645 0.273926

vt 0.910645 0.274414

vt 0.912109 0.274414

vt 0.910645 0.274414

vt 0.912109 0.274414

vt 0.912109 0.298340

vt 0.910645 0.298340

vt 0.912109 0.298828

vt 0.910645 0.298828

vt 0.912109 0.298828

vt 0.910645 0.298828

vt 0.910645 0.299316

vt 0.912109 0.299316

vt 0.910645 0.299316

vt 0.912109 0.299316

vt 0.250244 0.941528

vt 0.250488 0.940033

vt 0.250244 0.940033

vt 0.250488 0.941528

vt 0.250732 0.940033

vt 0.250732 0.941528

vt 0.250977 0.941528

vt 0.250977 0.940033

vt 0.251221 0.941528

vt 0.251221 0.940033

vt 0.251221 0.940033

vt 0.251221 0.941528

vt 0.251465 0.940033

vt 0.251465 0.941528

vt 0.251709 0.941528

vt 0.251709 0.940033

vt 0.251953 0.940033

vt 0.251953 0.941528

vt 0.252197 0.941528

vt 0.252197 0.940033

vt 0.252441 0.941528

vt 0.252441 0.940033

vt 0.252686 0.941528

vt 0.252686 0.940033

vt 0.252930 0.941528

vt 0.252930 0.940033

vt 0.276855 0.940033

vt 0.276855 0.941528

vt 0.277100 0.940033

vt 0.277100 0.941528

vt 0.277344 0.940033

vt 0.277344 0.941528

vt 0.277344 0.940033

vt 0.277344 0.941528

vt 0.277588 0.940033

vt 0.277588 0.941528

vt 0.277832 0.941528

vt 0.277832 0.940033

vt 0.278076 0.940033

vt 0.278076 0.941528

vt 0.278320 0.941528

vt 0.278320 0.940033

vt 0.278564 0.941528

vt 0.278564 0.940033

vt 0.278809 0.940033

vt 0.278809 0.941528

vt 0.279053 0.940033

vt 0.279053 0.941528

vt 0.279297 0.940033

vt 0.279297 0.941528

vt 0.279541 0.941528

vt 0.279541 0.940033

vt 0.279785 0.940033

vt 0.279785 0.941528

vt 0.279785 0.940033

vt 0.279785 0.941528

vt 0.280029 0.941528

vt 0.280029 0.940033

vt 0.280273 0.941528

vt 0.280273 0.940033

vt 0.304199 0.940033

vt 0.304199 0.941528

vt 0.304443 0.940033

vt 0.304443 0.941528

vt 0.304688 0.940033

vt 0.304688 0.941528

vt 0.304932 0.941528

vt 0.304932 0.940033

vt 0.305176 0.941528

vt 0.305176 0.940033

vt 0.791016 0.986694

vt 0.791992 0.986694

vt 0.791992 0.996002

vt 0.791016 0.996002

vt 0.790039 0.986694

vt 0.790039 0.996002

vt 0.789551 0.986694

vt 0.789551 0.996002

vt 0.788574 0.986694

vt 0.788574 0.996002

vt 0.787598 0.986694

vt 0.787598 0.996002

vt 0.787109 0.986694

vt 0.787109 0.996002

vt 0.786133 0.996002

vt 0.786133 0.986694

vt 0.785156 0.996002

vt 0.785156 0.986694

vt 0.784668 0.996002

vt 0.784668 0.986694

vt 0.783691 0.986694

vt 0.783691 0.996002

vt 0.782227 0.996002

vt 0.782227 0.986694

vt 0.483154 0.995998

vt 0.483154 0.986694

vt 0.481934 0.995998

vt 0.481934 0.986694

vt 0.480957 0.995998

vt 0.480957 0.986694

vt 0.480225 0.995998

vt 0.480225 0.986694

vt 0.479492 0.995998

vt 0.479492 0.986694

vt 0.478516 0.995998

vt 0.478516 0.986694

vt 0.477783 0.995998

vt 0.477783 0.986694

vt 0.477051 0.995998

vt 0.477051 0.986694

vt 0.476318 0.995998

vt 0.476318 0.986694

vt 0.475342 0.986694

vt 0.475342 0.995998

vt 0.474609 0.995998

vt 0.474609 0.986694

vt 0.473633 0.995998

vt 0.473633 0.986694

vt 0.472900 0.995998

vt 0.472900 0.986694

vt 0.472168 0.995998

vt 0.472168 0.986694

vt 0.470703 0.995998

vt 0.470703 0.986694

vt 0.007130 0.996002

vt 0.007130 0.986694

vt 0.005680 0.986694

vt 0.005680 0.996002

vt 0.004852 0.986694

vt 0.004852 0.996002

vt 0.003998 0.986694

vt 0.003998 0.996002

vt 0.910645 0.235352

vt 0.912109 0.235352

vt 0.910645 0.235352

vt 0.912109 0.235352

vt 0.912109 0.234863

vt 0.910645 0.234863

vt 0.910645 0.234863

vt 0.912109 0.234863

vt 0.912109 0.234375

vt 0.910645 0.234375

vt 0.910645 0.210449

vt 0.912109 0.210449

vt 0.910645 0.210449

vt 0.912109 0.210449

vt 0.910645 0.209961

vt 0.912109 0.209961

vt 0.910645 0.209961

vt 0.912109 0.209961

vt 0.912109 0.209473

vt 0.910645 0.209473

vt 0.912109 0.209473

vt 0.910645 0.209473

vt 0.910645 0.208984

vt 0.912109 0.208984

vt 0.912109 0.208984

vt 0.910645 0.208984

vt 0.910645 0.208984

vt 0.912109 0.208984

vt 0.912109 0.208496

vt 0.910645 0.208496

vt 0.910645 0.208496

vt 0.912109 0.208496

vt 0.910645 0.208008

vt 0.912109 0.208008

vt 0.912109 0.208008

vt 0.910645 0.208008

vt 0.910645 0.207520

vt 0.912109 0.207520

vt 0.912109 0.207520

vt 0.910645 0.207520

vt 0.912109 0.207031

vt 0.910645 0.207031

vt 0.912109 0.207031

vt 0.910645 0.207031

vt 0.912109 0.183105

vt 0.910645 0.183105

vt 0.910645 0.182617

vt 0.912109 0.182617

vt 0.912109 0.182617

vt 0.910645 0.182617

vt 0.910645 0.182129

vt 0.912109 0.182129

vt 0.912109 0.182129

vt 0.910645 0.182129

vt 0.912109 0.182129

vt 0.910645 0.182129

vt 0.910645 0.181641

vt 0.912109 0.181641

vt 0.910645 0.181641

vt 0.912109 0.181641

vt 0.912109 0.181152

vt 0.910645 0.181152

vt 0.910645 0.181152

vt 0.912109 0.181152

vt 0.912109 0.180664

vt 0.910645 0.180664

vt 0.912109 0.180664

vt 0.910645 0.180664

vt 0.910645 0.180176

vt 0.912109 0.180176

vt 0.225586 0.940033

vt 0.225342 0.941528

vt 0.225586 0.941528

vt 0.225342 0.940033

vt 0.225220 0.940033

vt 0.225220 0.941528

vt 0.224976 0.941528

vt 0.224976 0.940033

vt 0.224731 0.940033

vt 0.224731 0.941528

vt 0.200806 0.941528

vt 0.200806 0.940033

vt 0.200562 0.941528

vt 0.200562 0.940033

vt 0.200317 0.941528

vt 0.200317 0.940033

vt 0.200073 0.941528

vt 0.200073 0.940033

vt 0.199829 0.940033

vt 0.199829 0.941528

vt 0.199707 0.940033

vt 0.199707 0.941528

vt 0.199463 0.941528

vt 0.199463 0.940033

vt 0.199219 0.940033

vt 0.199219 0.941528

vt 0.198975 0.941528

vt 0.198975 0.940033

vt 0.198730 0.940033

vt 0.198730 0.941528

vt 0.198608 0.941528

vt 0.198608 0.940033

vt 0.198364 0.941528

vt 0.198364 0.940033

vt 0.198120 0.940033

vt 0.198120 0.941528

vt 0.197876 0.941528

vt 0.197876 0.940033

vt 0.197632 0.940033

vt 0.197632 0.941528

vt 0.197388 0.940033

vt 0.197388 0.941528

vt 0.197266 0.940033

vt 0.197266 0.941528

vt 0.173340 0.940033

vt 0.173340 0.941528

vt 0.173096 0.941528

vt 0.173096 0.940033

vt 0.172852 0.940033

vt 0.172852 0.941528

vt 0.172607 0.941528

vt 0.172607 0.940033

vt 0.172363 0.940033

vt 0.172363 0.941528

vt 0.172119 0.940033

vt 0.172119 0.941528

vt 0.171997 0.941528

vt 0.171997 0.940033

vt 0.171753 0.941528

vt 0.171753 0.940033

vt 0.171509 0.940033

vt 0.171509 0.941528

vt 0.171265 0.941528

vt 0.171265 0.940033

vt 0.171021 0.940033

vt 0.171021 0.941528

vt 0.170776 0.940033

vt 0.170776 0.941528

vt 0.170654 0.941528

vt 0.170654 0.940033

vt 0.856934 0.675781

vt 0.856445 0.676025

vt 0.856445 0.676025

vt 0.856445 0.674561

vt 0.856934 0.675293

vt 0.856934 0.675049

vt 0.856445 0.675049

vt 0.855957 0.676270

vt 0.855957 0.674561

vt 0.832031 0.674561

vt 0.832031 0.676270

vt 0.832031 0.674561

vt 0.832031 0.676270

vt 0.831543 0.676025

vt 0.831543 0.675049

vt 0.831543 0.674805

vt 0.831055 0.675537

vt 0.831543 0.676025

vt 0.831055 0.675293

vt 0.890137 0.675293

vt 0.890137 0.675293

vt 0.890137 0.675781

vt 0.890137 0.675049

vt 0.889648 0.674805

vt 0.889648 0.676270

vt 0.889648 0.676025

vt 0.889648 0.674561

vt 0.889160 0.674561

vt 0.889160 0.676270

vt 0.865723 0.674561

vt 0.865723 0.676270

vt 0.865234 0.676025

vt 0.865234 0.674561

vt 0.864746 0.675049

vt 0.864746 0.675049

vt 0.864746 0.675781

vt 0.864746 0.676025

vt 0.864746 0.675293

vt 0.360840 0.941223

vt 0.360840 0.941071

vt 0.360840 0.940613

vt 0.360596 0.941467

vt 0.360352 0.941650

vt 0.360596 0.940460

vt 0.360352 0.940186

vt 0.360107 0.940125

vt 0.360107 0.941711

vt 0.336182 0.940125

vt 0.336182 0.941711

vt 0.335938 0.940125

vt 0.335938 0.941681

vt 0.335693 0.941589

vt 0.335449 0.941467

vt 0.335205 0.941071

vt 0.335449 0.940460

vt 0.335693 0.940186

vt 0.335205 0.940918

vt 0.421631 0.933105

vt 0.421631 0.932983

vt 0.421387 0.933533

vt 0.421387 0.932678

vt 0.421143 0.932434

vt 0.420898 0.933899

vt 0.421143 0.933838

vt 0.420898 0.932312

vt 0.420654 0.932312

vt 0.420654 0.933899

vt 0.396973 0.932312

vt 0.396973 0.933899

vt 0.396484 0.932373

vt 0.396484 0.933838

vt 0.396240 0.933411

vt 0.396240 0.933655

vt 0.396240 0.932800

vt 0.396240 0.932678

vt 0.395996 0.933105



vn -1.000000 0.000000 0.000000

vn -1.000000 0.000000 0.000000

vn -1.000000 0.000000 0.000000

vn -1.000000 0.000000 0.000000

vn 0.000000 -0.102362 0.992126

vn 0.000000 -0.102362 0.992126

vn 0.000000 -0.102362 0.992126

vn 0.000000 -0.102362 0.992126

vn -1.000000 0.000000 0.000000

vn -1.000000 0.000000 0.000000

vn -1.000000 0.000000 0.000000

vn -1.000000 0.000000 0.000000

vn 0.000000 -1.000000 -0.007874

vn 0.000000 -1.000000 -0.007874

vn 0.000000 -1.000000 -0.007874

vn 0.000000 -1.000000 -0.007874

vn 1.000000 0.000000 0.000000

vn 1.000000 0.000000 0.000000

vn 1.000000 0.000000 0.000000

vn 1.000000 0.000000 0.000000

vn 0.000000 -0.007874 1.000000

vn 0.000000 -0.007874 1.000000

vn 0.000000 -0.007874 1.000000

vn 0.000000 -0.007874 1.000000

vn 1.000000 0.000000 0.000000

vn 1.000000 0.000000 0.000000

vn 1.000000 0.000000 0.000000

vn 1.000000 0.000000 0.000000

vn 0.000000 -0.102362 0.992126

vn 0.000000 -0.102362 0.992126

vn 0.000000 -0.102362 0.992126

vn 0.000000 -0.102362 0.992126

vn 1.000000 0.000000 0.000000

vn 1.000000 0.000000 0.000000

vn 1.000000 0.000000 0.000000

vn 1.000000 0.000000 0.000000

vn 0.000000 -1.000000 -0.007874

vn 0.000000 -1.000000 -0.007874

vn 0.000000 -1.000000 -0.007874

vn 0.000000 -1.000000 -0.007874

vn -1.000000 0.000000 0.000000

vn -1.000000 0.000000 0.000000

vn -1.000000 0.000000 0.000000

vn -1.000000 0.000000 0.000000

vn 0.000000 0.007874 -1.000000

vn 0.000000 0.007874 -1.000000

vn 0.000000 0.007874 -1.000000

vn 0.000000 0.007874 -1.000000

vn 0.000000 -1.000000 -0.007874

vn 0.000000 -1.000000 -0.007874

vn 0.000000 -1.000000 -0.007874

vn 0.000000 -1.000000 -0.007874

vn 0.000000 -1.000000 -0.007874

vn 0.000000 -1.000000 -0.007874

vn 0.000000 -1.000000 -0.007874

vn 0.000000 -1.000000 -0.007874

vn 0.000000 -1.000000 -0.007874

vn 0.000000 -1.000000 -0.007874

vn 0.000000 -1.000000 -0.007874

vn 0.000000 -1.000000 -0.007874

vn 0.000000 -1.000000 -0.007874

vn 0.000000 -1.000000 -0.007874

vn 0.000000 -1.000000 -0.007874

vn 0.000000 -1.000000 -0.007874

vn 0.000000 -1.000000 -0.007874

vn 0.000000 -1.000000 -0.007874

vn 0.000000 -1.000000 -0.007874

vn 0.000000 -1.000000 -0.007874

vn 0.000000 -1.000000 -0.007874

vn 0.000000 -1.000000 -0.007874

vn 0.000000 -1.000000 -0.007874

vn 0.000000 -1.000000 -0.007874

vn 0.000000 -1.000000 -0.007874

vn 0.000000 -1.000000 -0.007874

vn 0.000000 -1.000000 -0.007874

vn 0.000000 -1.000000 -0.007874

vn 0.000000 -1.000000 -0.007874

vn 0.000000 -1.000000 -0.007874

vn 0.000000 -1.000000 -0.007874

vn 0.000000 -1.000000 -0.007874

vn 0.000000 -1.000000 -0.007874

vn 0.000000 -1.000000 -0.007874

vn 0.000000 -1.000000 -0.007874

vn 0.000000 -1.000000 -0.007874

vn 0.000000 -1.000000 -0.007874

vn 0.000000 -1.000000 -0.007874

vn 0.000000 -1.000000 -0.007874

vn 0.000000 -1.000000 -0.007874

vn 0.000000 -1.000000 -0.007874

vn 0.000000 -1.000000 -0.007874

vn 0.000000 -1.000000 -0.007874

vn 0.000000 -1.000000 -0.007874

vn 0.000000 -1.000000 -0.007874

vn 0.000000 -1.000000 -0.007874

vn 0.000000 -1.000000 -0.007874

vn 0.000000 -1.000000 -0.007874

vn 0.000000 -1.000000 -0.007874

vn 0.000000 -1.000000 -0.007874

vn 0.000000 -1.000000 -0.007874

vn 0.000000 -1.000000 -0.007874

vn 0.000000 -1.000000 -0.007874

vn 0.000000 -1.000000 -0.007874

vn 0.000000 -1.000000 -0.007874

vn 0.000000 -1.000000 -0.007874

vn 0.000000 -1.000000 -0.007874

vn 0.000000 -1.000000 -0.007874

vn 0.000000 -1.000000 -0.007874

vn 0.000000 -1.000000 -0.007874

vn 0.000000 -1.000000 -0.007874

vn 0.000000 -1.000000 -0.007874

vn 0.000000 -1.000000 -0.007874

vn 0.000000 -1.000000 -0.007874

vn 0.000000 -1.000000 -0.007874

vn 0.000000 -1.000000 -0.007874

vn 0.000000 -1.000000 -0.007874

vn 0.000000 -1.000000 -0.007874

vn 0.000000 -1.000000 -0.007874

vn 0.000000 -1.000000 -0.007874

vn 0.000000 -1.000000 -0.007874

vn 0.000000 -1.000000 -0.007874

vn 0.000000 -1.000000 -0.007874

vn 0.000000 -1.000000 -0.007874

vn 0.000000 -1.000000 -0.007874

vn 0.000000 -1.000000 -0.007874

vn 0.000000 1.000000 0.007874

vn 0.000000 1.000000 0.007874

vn 0.000000 1.000000 0.007874

vn 0.000000 1.000000 0.007874

vn 0.000000 1.000000 0.007874

vn 0.000000 1.000000 0.007874

vn 0.000000 1.000000 0.007874

vn 0.000000 1.000000 0.007874

vn 0.000000 1.000000 0.007874

vn 0.000000 1.000000 0.007874

vn 0.000000 1.000000 0.007874

vn 0.000000 1.000000 0.007874

vn 0.000000 1.000000 0.007874

vn 0.000000 1.000000 0.007874

vn 0.000000 1.000000 0.007874

vn 0.000000 1.000000 0.007874

vn 0.000000 1.000000 0.007874

vn 0.000000 1.000000 0.007874

vn 0.000000 1.000000 0.007874

vn 0.000000 1.000000 0.007874

vn 0.000000 1.000000 0.007874

vn 0.000000 1.000000 0.007874

vn 0.000000 1.000000 0.007874

vn 0.000000 1.000000 0.007874

vn 0.000000 1.000000 0.007874

vn 0.000000 1.000000 0.007874

vn 0.000000 1.000000 0.007874

vn 0.000000 1.000000 0.007874

vn 0.000000 1.000000 0.007874

vn 0.000000 1.000000 0.007874

vn 0.000000 1.000000 0.007874

vn 0.000000 1.000000 0.007874

vn 0.000000 1.000000 0.007874

vn 0.000000 1.000000 0.007874

vn 0.000000 1.000000 0.007874

vn 0.000000 1.000000 0.007874

vn 0.000000 1.000000 0.007874

vn 0.000000 1.000000 0.007874

vn 0.000000 1.000000 0.007874

vn 0.000000 1.000000 0.007874

vn 0.000000 1.000000 0.007874

vn 0.000000 1.000000 0.007874

vn 0.000000 1.000000 0.007874

vn 0.000000 1.000000 0.007874

vn 0.000000 1.000000 0.007874

vn 0.000000 1.000000 0.007874

vn 0.000000 1.000000 0.007874

vn 0.000000 1.000000 0.007874

vn 0.000000 1.000000 0.007874

vn 0.000000 1.000000 0.007874

vn 0.000000 1.000000 0.007874

vn 0.000000 1.000000 0.007874

vn 0.000000 1.000000 0.007874

vn 0.000000 1.000000 0.007874

vn 0.000000 1.000000 0.007874

vn 0.000000 1.000000 0.007874

vn 0.000000 1.000000 0.007874

vn 0.000000 1.000000 0.007874

vn 0.000000 1.000000 0.007874

vn 0.000000 1.000000 0.007874

vn 0.157480 0.007874 -0.984252

vn 0.094488 0.007874 -0.992126

vn 0.157480 0.007874 -0.984252

vn 0.094488 0.007874 -0.992126

vn 0.039370 0.007874 -1.000000

vn 0.039370 0.007874 -1.000000

vn 0.007874 0.007874 -1.000000

vn 0.007874 0.007874 -1.000000

vn 0.000000 0.007874 -1.000000

vn 0.000000 0.007874 -1.000000

vn 0.000000 0.007874 -1.000000

vn 0.000000 0.007874 -1.000000

vn 0.000000 0.007874 -1.000000

vn -0.007874 0.007874 -1.000000

vn 0.000000 0.007874 -1.000000

vn 0.000000 0.007874 -1.000000

vn 0.000000 0.007874 -1.000000

vn -0.007874 0.007874 -1.000000

vn -0.039370 0.007874 -1.000000

vn -0.039370 0.007874 -1.000000

vn -0.094488 0.007874 -0.992126

vn -0.094488 0.007874 -0.992126

vn -0.157480 0.007874 -0.984252

vn -0.157480 0.007874 -0.984252

vn -0.251969 0.007874 -0.968504

vn -0.251969 0.007874 -0.968504

vn -0.377953 0.007874 -0.929134

vn -0.377953 0.007874 -0.929134

vn -0.527559 0.007874 -0.850394

vn -0.527559 0.007874 -0.850394

vn -0.700787 0.007874 -0.716535

vn -0.700787 0.007874 -0.716535

vn -0.834646 0.007874 -0.551181

vn -0.834646 0.007874 -0.551181

vn -0.921260 0.007874 -0.393701

vn -0.921260 0.007874 -0.393701

vn -0.960630 0.000000 -0.267717

vn -0.960630 0.000000 -0.267717

vn -0.984252 0.000000 -0.165354

vn -0.984252 0.000000 -0.165354

vn -0.992126 0.000000 -0.094488

vn -0.992126 0.000000 -0.094488

vn -1.000000 0.000000 -0.039370

vn -1.000000 0.000000 -0.039370

vn -1.000000 0.000000 -0.007874

vn -1.000000 0.000000 -0.007874

vn -1.000000 0.000000 0.007874

vn -1.000000 0.000000 0.007874

vn -1.000000 0.000000 0.039370

vn -1.000000 0.000000 0.039370

vn -0.992126 0.000000 0.102362

vn -0.992126 0.000000 0.102362

vn -0.984252 0.000000 0.173228

vn -0.984252 0.000000 0.173228

vn -0.960630 0.000000 0.267717

vn -0.960630 0.000000 0.267717

vn -0.921260 -0.007874 0.393701

vn -0.921260 -0.007874 0.393701

vn -0.834646 -0.007874 0.551181

vn -0.834646 -0.007874 0.551181

vn -0.692913 -0.007874 0.724409

vn -0.692913 -0.007874 0.724409

vn -0.519685 -0.007874 0.850394

vn -0.519685 -0.007874 0.850394

vn -0.370079 -0.007874 0.929134

vn -0.370079 -0.007874 0.929134

vn -0.251969 -0.007874 0.968504

vn -0.251969 -0.007874 0.968504

vn -0.157480 -0.007874 0.984252

vn -0.157480 -0.007874 0.984252

vn -0.740157 -0.440945 -0.503937

vn -0.629921 -0.440945 -0.637795

vn -0.629921 -0.440945 -0.637795

vn -0.740157 -0.440945 -0.503937

vn -0.826772 -0.448819 -0.346457

vn -0.826772 -0.448819 -0.346457

vn -0.874016 -0.448819 -0.181102

vn -0.874016 -0.448819 -0.181102

vn -0.889764 -0.448819 -0.007874

vn -0.889764 -0.448819 -0.007874

vn -0.874016 -0.448819 0.173228

vn -0.874016 -0.448819 0.173228

vn -0.826772 -0.448819 0.338583

vn -0.826772 -0.448819 0.338583

vn -0.740157 -0.456693 0.488189

vn -0.740157 -0.456693 0.488189

vn -0.629921 -0.456693 0.629921

vn -0.629921 -0.456693 0.629921

vn -0.496063 -0.456693 0.740157

vn -0.496063 -0.456693 0.740157

vn -0.338583 -0.456693 0.818898

vn -0.338583 -0.456693 0.818898

vn -0.173228 -0.456693 0.874016

vn -0.173228 -0.456693 0.874016

vn -0.047244 -0.456693 0.889764

vn -0.047244 -0.456693 0.889764

vn 0.047244 -0.456693 0.889764

vn 0.047244 -0.456693 0.889764

vn 0.173228 -0.456693 0.874016

vn 0.173228 -0.456693 0.874016

vn 0.338583 -0.456693 0.818898

vn 0.338583 -0.456693 0.818898

vn 0.496063 -0.456693 0.740157

vn 0.496063 -0.456693 0.740157

vn 0.629921 -0.456693 0.629921

vn 0.629921 -0.456693 0.629921

vn 0.740157 -0.456693 0.488189

vn 0.740157 -0.456693 0.488189

vn 0.826772 -0.448819 0.338583

vn 0.826772 -0.448819 0.338583

vn 0.874016 -0.448819 0.173228

vn 0.874016 -0.448819 0.173228

vn 0.889764 -0.448819 -0.007874

vn 0.889764 -0.448819 -0.007874

vn 0.874016 -0.448819 -0.181102

vn 0.874016 -0.448819 -0.181102

vn 0.826772 -0.448819 -0.346457

vn 0.826772 -0.448819 -0.346457

vn 0.740157 -0.440945 -0.503937

vn 0.740157 -0.440945 -0.503937

vn 0.629921 -0.440945 -0.637795

vn 0.629921 -0.440945 -0.637795

vn 0.496063 -0.440945 -0.748031

vn 0.496063 -0.440945 -0.748031

vn 0.338583 -0.440945 -0.826772

vn 0.338583 -0.440945 -0.826772

vn 0.173228 -0.440945 -0.881890

vn 0.173228 -0.440945 -0.881890

vn 0.047244 -0.440945 -0.897638

vn 0.047244 -0.440945 -0.897638

vn -0.047244 -0.440945 -0.897638

vn -0.047244 -0.440945 -0.897638

vn -0.173228 -0.440945 -0.881890

vn -0.173228 -0.440945 -0.881890

vn -0.338583 -0.440945 -0.826772

vn -0.338583 -0.440945 -0.826772

vn -0.496063 -0.440945 -0.748031

vn -0.496063 -0.440945 -0.748031

vn -0.629921 -0.440945 -0.637795

vn -0.629921 -0.440945 -0.637795

vn 0.629921 -0.440945 -0.637795

vn 0.740157 -0.440945 -0.503937

vn 0.629921 -0.440945 -0.637795

vn 0.740157 -0.440945 -0.503937

vn 0.826772 -0.448819 -0.346457

vn 0.826772 -0.448819 -0.346457

vn 0.874016 -0.448819 -0.181102

vn 0.874016 -0.448819 -0.181102

vn 0.889764 -0.448819 -0.007874

vn 0.889764 -0.448819 -0.007874

vn 0.874016 -0.448819 0.173228

vn 0.874016 -0.448819 0.173228

vn 0.826772 -0.448819 0.338583

vn 0.826772 -0.448819 0.338583

vn 0.740157 -0.456693 0.488189

vn 0.740157 -0.456693 0.488189

vn 0.629921 -0.456693 0.629921

vn 0.629921 -0.456693 0.629921

vn 0.496063 -0.456693 0.740157

vn 0.496063 -0.456693 0.740157

vn 0.338583 -0.456693 0.818898

vn 0.338583 -0.456693 0.818898

vn 0.173228 -0.456693 0.874016

vn 0.173228 -0.456693 0.874016

vn 0.047244 -0.456693 0.889764

vn 0.047244 -0.456693 0.889764

vn -0.047244 -0.456693 0.889764

vn -0.047244 -0.456693 0.889764

vn -0.173228 -0.456693 0.874016

vn -0.173228 -0.456693 0.874016

vn -0.338583 -0.456693 0.818898

vn -0.338583 -0.456693 0.818898

vn -0.496063 -0.456693 0.740157

vn -0.496063 -0.456693 0.740157

vn -0.629921 -0.456693 0.629921

vn -0.629921 -0.456693 0.629921

vn -0.740157 -0.456693 0.488189

vn -0.740157 -0.456693 0.488189

vn -0.826772 -0.448819 0.338583

vn -0.826772 -0.448819 0.338583

vn -0.874016 -0.448819 0.173228

vn -0.874016 -0.448819 0.173228

vn -0.889764 -0.448819 -0.007874

vn -0.889764 -0.448819 -0.007874

vn -0.874016 -0.448819 -0.181102

vn -0.874016 -0.448819 -0.181102

vn -0.826772 -0.448819 -0.346457

vn -0.826772 -0.448819 -0.346457

vn -0.740157 -0.440945 -0.503937

vn -0.740157 -0.440945 -0.503937

vn -0.629921 -0.440945 -0.637795

vn -0.629921 -0.440945 -0.637795

vn -0.496063 -0.440945 -0.748031

vn -0.496063 -0.440945 -0.748031

vn -0.338583 -0.440945 -0.826772

vn -0.338583 -0.440945 -0.826772

vn -0.173228 -0.440945 -0.881890

vn -0.173228 -0.440945 -0.881890

vn -0.047244 -0.440945 -0.897638

vn -0.047244 -0.440945 -0.897638

vn 0.047244 -0.440945 -0.897638

vn 0.047244 -0.440945 -0.897638

vn 0.173228 -0.440945 -0.881890

vn 0.173228 -0.440945 -0.881890

vn 0.338583 -0.440945 -0.826772

vn 0.338583 -0.440945 -0.826772

vn 0.496063 -0.440945 -0.748031

vn 0.496063 -0.440945 -0.748031

vn 0.629921 -0.440945 -0.637795

vn 0.629921 -0.440945 -0.637795

vn 0.251969 0.007874 -0.968504

vn 0.157480 0.007874 -0.984252

vn 0.157480 0.007874 -0.984252

vn 0.251969 0.007874 -0.968504

vn 0.377953 0.007874 -0.929134

vn 0.377953 0.007874 -0.929134

vn 0.527559 0.007874 -0.850394

vn 0.527559 0.007874 -0.850394

vn 0.700787 0.007874 -0.716535

vn 0.700787 0.007874 -0.716535

vn 0.834646 0.007874 -0.551181

vn 0.834646 0.007874 -0.551181

vn 0.921260 0.007874 -0.393701

vn 0.921260 0.007874 -0.393701

vn 0.960630 0.000000 -0.267717

vn 0.960630 0.000000 -0.267717

vn 0.984252 0.000000 -0.165354

vn 0.984252 0.000000 -0.165354

vn 0.992126 0.000000 -0.094488

vn 0.992126 0.000000 -0.094488

vn 1.000000 0.000000 -0.039370

vn 1.000000 0.000000 -0.039370

vn 1.000000 0.000000 -0.007874

vn 1.000000 0.000000 -0.007874

vn 1.000000 0.000000 0.007874

vn 1.000000 0.000000 0.007874

vn 1.000000 0.000000 0.039370

vn 1.000000 0.000000 0.039370

vn 0.992126 0.000000 0.102362

vn 0.992126 0.000000 0.102362

vn 0.984252 0.000000 0.173228

vn 0.984252 0.000000 0.173228

vn 0.960630 0.000000 0.267717

vn 0.960630 0.000000 0.267717

vn 0.921260 -0.007874 0.393701

vn 0.921260 -0.007874 0.393701

vn 0.834646 -0.007874 0.551181

vn 0.834646 -0.007874 0.551181

vn 0.692913 -0.007874 0.724409

vn 0.692913 -0.007874 0.724409

vn 0.519685 -0.007874 0.850394

vn 0.519685 -0.007874 0.850394

vn 0.370079 -0.007874 0.929134

vn 0.370079 -0.007874 0.929134

vn 0.251969 -0.007874 0.968504

vn 0.251969 -0.007874 0.968504

vn 0.157480 -0.007874 0.984252

vn 0.157480 -0.007874 0.984252

vn 0.094488 -0.007874 0.992126

vn 0.094488 -0.007874 0.992126

vn 0.039370 -0.007874 1.000000

vn 0.039370 -0.007874 1.000000

vn 0.007874 -0.007874 1.000000

vn 0.007874 -0.007874 1.000000

vn -0.007874 -0.007874 1.000000

vn -0.007874 -0.007874 1.000000

vn -0.039370 -0.007874 1.000000

vn -0.039370 -0.007874 1.000000

vn -0.094488 -0.007874 0.992126

vn -0.094488 -0.007874 0.992126

vn -0.157480 -0.007874 0.984252

vn -0.157480 -0.007874 0.984252

vn -0.740157 -0.440945 -0.503937

vn -0.629921 -0.440945 -0.637795

vn -0.629921 -0.440945 -0.637795

vn -0.740157 -0.440945 -0.503937

vn -0.826772 -0.448819 -0.346457

vn -0.826772 -0.448819 -0.346457

vn -0.874016 -0.448819 -0.181102

vn -0.874016 -0.448819 -0.181102

vn -0.889764 -0.448819 -0.047244

vn -0.889764 -0.448819 -0.047244

vn -0.889764 -0.448819 0.039370

vn -0.889764 -0.448819 0.039370

vn -0.874016 -0.448819 0.173228

vn -0.874016 -0.448819 0.173228

vn -0.826772 -0.448819 0.338583

vn -0.826772 -0.448819 0.338583

vn -0.740157 -0.456693 0.488189

vn -0.740157 -0.456693 0.488189

vn -0.629921 -0.456693 0.629921

vn -0.629921 -0.456693 0.629921

vn -0.496063 -0.456693 0.740157

vn -0.496063 -0.456693 0.740157

vn -0.338583 -0.456693 0.818898

vn -0.338583 -0.456693 0.818898

vn -0.173228 -0.456693 0.874016

vn -0.173228 -0.456693 0.874016

vn 0.000000 -0.456693 0.889764

vn 0.000000 -0.456693 0.889764

vn 0.173228 -0.456693 0.874016

vn 0.173228 -0.456693 0.874016

vn 0.338583 -0.456693 0.818898

vn 0.338583 -0.456693 0.818898

vn 0.496063 -0.456693 0.740157

vn 0.496063 -0.456693 0.740157

vn 0.629921 -0.456693 0.629921

vn 0.629921 -0.456693 0.629921

vn 0.740157 -0.456693 0.488189

vn 0.740157 -0.456693 0.488189

vn 0.826772 -0.448819 0.338583

vn 0.826772 -0.448819 0.338583

vn 0.874016 -0.448819 0.173228

vn 0.874016 -0.448819 0.173228

vn 0.889764 -0.448819 0.039370

vn 0.889764 -0.448819 0.039370

vn 0.889764 -0.448819 -0.047244

vn 0.889764 -0.448819 -0.047244

vn 0.874016 -0.448819 -0.181102

vn 0.874016 -0.448819 -0.181102

vn 0.826772 -0.448819 -0.346457

vn 0.826772 -0.448819 -0.346457

vn 0.740157 -0.440945 -0.503937

vn 0.740157 -0.440945 -0.503937

vn 0.629921 -0.440945 -0.637795

vn 0.629921 -0.440945 -0.637795

vn 0.496063 -0.440945 -0.748031

vn 0.496063 -0.440945 -0.748031

vn 0.338583 -0.440945 -0.826772

vn 0.338583 -0.440945 -0.826772

vn 0.173228 -0.440945 -0.881890

vn 0.173228 -0.440945 -0.881890

vn 0.000000 -0.440945 -0.897638

vn 0.000000 -0.440945 -0.897638

vn -0.173228 -0.440945 -0.881890

vn -0.173228 -0.440945 -0.881890

vn -0.338583 -0.440945 -0.826772

vn -0.338583 -0.440945 -0.826772

vn -0.496063 -0.440945 -0.748031

vn -0.496063 -0.440945 -0.748031

vn -0.629921 -0.440945 -0.637795

vn -0.629921 -0.440945 -0.637795

vn 0.629921 -0.440945 -0.637795

vn 0.740157 -0.440945 -0.503937

vn 0.629921 -0.440945 -0.637795

vn 0.740157 -0.440945 -0.503937

vn 0.826772 -0.448819 -0.346457

vn 0.826772 -0.448819 -0.346457

vn 0.874016 -0.448819 -0.181102

vn 0.874016 -0.448819 -0.181102

vn 0.889764 -0.448819 -0.047244

vn 0.889764 -0.448819 -0.047244

vn 0.889764 -0.448819 0.039370

vn 0.889764 -0.448819 0.039370

vn 0.874016 -0.448819 0.173228

vn 0.874016 -0.448819 0.173228

vn 0.826772 -0.448819 0.338583

vn 0.826772 -0.448819 0.338583

vn 0.740157 -0.456693 0.488189

vn 0.740157 -0.456693 0.488189

vn 0.629921 -0.456693 0.629921

vn 0.629921 -0.456693 0.629921

vn 0.496063 -0.456693 0.740157

vn 0.496063 -0.456693 0.740157

vn 0.338583 -0.456693 0.818898

vn 0.338583 -0.456693 0.818898

vn 0.173228 -0.456693 0.874016

vn 0.173228 -0.456693 0.874016

vn 0.000000 -0.456693 0.889764

vn 0.000000 -0.456693 0.889764

vn -0.173228 -0.456693 0.874016

vn -0.173228 -0.456693 0.874016

vn -0.338583 -0.456693 0.818898

vn -0.338583 -0.456693 0.818898

vn -0.496063 -0.456693 0.740157

vn -0.496063 -0.456693 0.740157

vn -0.629921 -0.456693 0.629921

vn -0.629921 -0.456693 0.629921

vn -0.740157 -0.456693 0.488189

vn -0.740157 -0.456693 0.488189

vn -0.826772 -0.448819 0.338583

vn -0.826772 -0.448819 0.338583

vn -0.874016 -0.448819 0.173228

vn -0.874016 -0.448819 0.173228

vn -0.889764 -0.448819 0.039370

vn -0.889764 -0.448819 0.039370

vn -0.889764 -0.448819 -0.047244

vn -0.889764 -0.448819 -0.047244

vn -0.874016 -0.448819 -0.181102

vn -0.874016 -0.448819 -0.181102

vn -0.826772 -0.448819 -0.346457

vn -0.826772 -0.448819 -0.346457

vn -0.740157 -0.440945 -0.503937

vn -0.740157 -0.440945 -0.503937

vn -0.629921 -0.440945 -0.637795

vn -0.629921 -0.440945 -0.637795

vn -0.496063 -0.440945 -0.748031

vn -0.496063 -0.440945 -0.748031

vn -0.338583 -0.440945 -0.826772

vn -0.338583 -0.440945 -0.826772

vn -0.173228 -0.440945 -0.881890

vn -0.173228 -0.440945 -0.881890

vn 0.000000 -0.440945 -0.897638

vn 0.000000 -0.440945 -0.897638

vn 0.173228 -0.440945 -0.881890

vn 0.173228 -0.440945 -0.881890

vn 0.338583 -0.440945 -0.826772

vn 0.338583 -0.440945 -0.826772

vn 0.496063 -0.440945 -0.748031

vn 0.496063 -0.440945 -0.748031

vn 0.629921 -0.440945 -0.637795

vn 0.629921 -0.440945 -0.637795

vn 0.000000 -1.000000 -0.007874

vn 0.000000 -1.000000 -0.007874

vn 0.000000 -1.000000 -0.007874

vn 0.000000 -1.000000 -0.007874

vn 0.000000 -1.000000 -0.007874

vn 0.000000 -1.000000 -0.007874

vn 0.000000 -1.000000 -0.007874

vn 0.000000 -1.000000 -0.007874

vn 0.000000 -1.000000 -0.007874

vn 0.000000 -1.000000 -0.007874

vn 0.000000 -1.000000 -0.007874

vn 0.000000 -1.000000 -0.007874

vn 0.000000 -1.000000 -0.007874

vn 0.000000 -1.000000 -0.007874

vn 0.000000 -1.000000 -0.007874

vn 0.000000 -1.000000 -0.007874

vn 0.000000 -1.000000 -0.007874

vn 0.000000 -1.000000 -0.007874

vn 0.000000 -1.000000 -0.007874

vn 0.000000 -1.000000 -0.007874

vn 0.000000 -1.000000 -0.007874

vn 0.000000 -1.000000 -0.007874

vn 0.000000 -1.000000 -0.007874

vn 0.000000 -1.000000 -0.007874

vn 0.000000 -1.000000 -0.007874

vn 0.000000 -1.000000 -0.007874

vn 0.000000 -1.000000 -0.007874

vn 0.000000 -1.000000 -0.007874

vn 0.000000 -1.000000 -0.007874

vn 0.000000 -1.000000 -0.007874

vn 0.000000 -1.000000 -0.007874

vn 0.000000 -1.000000 -0.007874

vn 0.000000 -1.000000 -0.007874

vn 0.000000 -1.000000 -0.007874

vn 0.000000 -1.000000 -0.007874

vn 0.000000 -1.000000 -0.007874

vn 0.000000 -1.000000 -0.007874

vn 0.000000 -1.000000 -0.007874

vn 0.000000 -1.000000 -0.007874

vn 0.000000 -1.000000 -0.007874

vn 0.000000 -1.000000 -0.007874

vn 0.000000 -1.000000 -0.007874

vn 0.000000 -1.000000 -0.007874

vn 0.000000 -1.000000 -0.007874

vn 0.000000 -1.000000 -0.007874

vn 0.000000 -1.000000 -0.007874

vn 0.000000 -1.000000 -0.007874

vn 0.000000 -1.000000 -0.007874

vn 0.000000 -1.000000 -0.007874

vn 0.000000 -1.000000 -0.007874

vn 0.000000 -1.000000 -0.007874

vn 0.000000 -1.000000 -0.007874

vn 0.000000 -1.000000 -0.007874

vn 0.000000 -1.000000 -0.007874

vn 0.000000 -1.000000 -0.007874

vn 0.000000 -1.000000 -0.007874

vn 0.000000 -1.000000 -0.007874

vn 0.000000 -1.000000 -0.007874

vn 0.000000 -1.000000 -0.007874

vn 0.000000 -1.000000 -0.007874

vn 0.000000 -1.000000 -0.007874

vn 0.000000 -1.000000 -0.007874

vn 0.000000 -1.000000 -0.007874

vn 0.000000 -1.000000 -0.007874

vn 0.000000 -1.000000 -0.007874

vn 0.000000 -1.000000 -0.007874

vn 0.000000 -1.000000 -0.007874

vn 0.000000 -1.000000 -0.007874

vn 0.000000 -1.000000 -0.007874

vn 0.000000 -1.000000 -0.007874

vn 0.000000 -1.000000 -0.007874

vn 0.000000 -1.000000 -0.007874

vn 0.000000 -1.000000 -0.007874

vn 0.000000 -1.000000 -0.007874

vn 0.000000 -1.000000 -0.007874

vn 0.000000 -1.000000 -0.007874

f 1/1/1 2/2/2 3/3/3

f 1/1/1 4/4/4 2/2/2

f 5/5/5 6/6/6 7/7/7

f 5/5/5 8/8/8 6/6/6

f 9/9/9 10/10/10 11/11/11

f 9/9/9 12/12/12 10/10/10

f 13/13/13 14/14/14 15/15/15

f 13/13/13 16/16/16 14/14/14

f 17/17/17 18/18/18 19/19/19

f 17/17/17 20/20/20 18/18/18

f 21/21/21 22/22/22 23/23/23

f 21/21/21 24/24/24 22/22/22

f 25/25/25 26/26/26 27/27/27

f 25/25/25 28/28/28 26/26/26

f 29/29/29 30/30/30 31/31/31

f 29/29/29 32/32/32 30/30/30

f 33/33/33 34/34/34 35/35/35

f 33/33/33 36/36/36 34/34/34

f 37/37/37 38/38/38 39/39/39

f 37/37/37 40/40/40 38/38/38

f 41/41/41 42/42/42 43/43/43

f 41/41/41 44/44/44 42/42/42

f 45/45/45 46/46/46 47/47/47

f 45/45/45 48/48/48 46/46/46

f 49/49/49 50/50/50 51/51/51

f 49/49/49 52/52/52 50/50/50

f 53/53/53 54/54/54 55/55/55

f 56/56/56 53/53/53 55/55/55

f 55/55/55 57/57/57 56/56/56

f 57/57/57 58/58/58 56/56/56

f 59/59/59 56/56/56 58/58/58

f 60/60/60 59/59/59 58/58/58

f 60/60/60 58/58/58 61/61/61

f 62/62/62 60/60/60 61/61/61

f 61/61/61 63/63/63 62/62/62

f 64/64/64 62/62/62 63/63/63

f 64/64/64 63/63/63 65/65/65

f 66/66/66 64/64/64 65/65/65

f 65/65/65 67/67/67 66/66/66

f 67/67/67 68/68/68 66/66/66

f 69/69/69 68/68/68 67/67/67

f 70/70/70 66/66/66 68/68/68

f 69/69/69 71/71/71 68/68/68

f 70/70/70 72/72/72 66/66/66

f 71/71/71 69/69/69 73/73/73

f 69/69/69 74/74/74 73/73/73

f 73/73/73 75/75/75 71/71/71

f 76/76/76 73/73/73 74/74/74

f 74/74/74 77/77/77 76/76/76

f 76/76/76 77/77/77 78/78/78

f 77/77/77 79/79/79 78/78/78

f 80/80/80 78/78/78 79/79/79

f 79/79/79 81/81/81 80/80/80

f 80/80/80 81/81/81 82/82/82

f 81/81/81 83/83/83 82/82/82

f 84/84/84 82/82/82 83/83/83

f 83/83/83 85/85/85 84/84/84

f 84/84/84 85/85/85 86/86/86

f 85/85/85 87/87/87 86/86/86

f 73/73/73 88/88/88 75/75/75

f 89/89/89 75/75/75 88/88/88

f 88/88/88 90/90/90 89/89/89

f 88/88/88 91/91/91 90/90/90

f 91/91/91 92/92/92 90/90/90

f 93/93/93 90/90/90 92/92/92

f 94/94/94 93/93/93 92/92/92

f 92/92/92 95/95/95 94/94/94

f 96/96/96 94/94/94 95/95/95

f 95/95/95 97/97/97 96/96/96

f 97/97/97 98/98/98 96/96/96

f 96/96/96 98/98/98 99/99/99

f 98/98/98 100/100/100 99/99/99

f 101/101/101 99/99/99 100/100/100

f 100/100/100 102/102/102 101/101/101

f 103/103/103 104/104/104 89/89/89

f 89/89/89 104/104/104 75/75/75

f 75/75/75 104/104/104 105/105/105

f 70/70/70 75/75/75 105/105/105

f 105/105/105 106/106/106 107/107/107

f 105/105/105 107/107/107 108/108/108

f 105/105/105 108/108/108 70/70/70

f 108/108/108 109/109/109 70/70/70

f 110/110/110 70/70/70 109/109/109

f 111/111/111 110/110/110 109/109/109

f 72/72/72 70/70/70 110/110/110

f 110/110/110 112/112/112 72/72/72

f 72/72/72 112/112/112 113/113/113

f 112/112/112 114/114/114 113/113/113

f 115/115/115 113/113/113 114/114/114

f 116/116/116 115/115/115 114/114/114

f 114/114/114 117/117/117 116/116/116

f 118/118/118 116/116/116 117/117/117

f 117/117/117 119/119/119 118/118/118

f 119/119/119 120/120/120 118/118/118

f 118/118/118 120/120/120 121/121/121

f 120/120/120 122/122/122 121/121/121

f 123/123/123 121/121/121 122/122/122

f 122/122/122 124/124/124 123/123/123

f 125/125/125 126/126/126 127/127/127

f 128/128/128 125/125/125 127/127/127

f 127/127/127 129/129/129 128/128/128

f 129/129/129 130/130/130 128/128/128

f 128/128/128 130/130/130 131/131/131

f 132/132/132 131/131/131 130/130/130

f 130/130/130 133/133/133 132/132/132

f 133/133/133 134/134/134 132/132/132

f 133/133/133 135/135/135 134/134/134

f 136/136/136 134/134/134 135/135/135

f 135/135/135 137/137/137 136/136/136

f 138/138/138 136/136/136 137/137/137

f 137/137/137 139/139/139 138/138/138

f 140/140/140 138/138/138 139/139/139

f 139/139/139 141/141/141 140/140/140

f 139/139/139 142/142/142 141/141/141

f 141/141/141 143/143/143 140/140/140

f 144/144/144 140/140/140 143/143/143

f 145/145/145 141/141/141 142/142/142

f 146/146/146 144/144/144 143/143/143

f 143/143/143 147/147/147 146/146/146

f 147/147/147 148/148/148 146/146/146

f 146/146/146 148/148/148 149/149/149

f 148/148/148 150/150/150 149/149/149

f 151/151/151 149/149/149 150/150/150

f 152/152/152 151/151/151 150/150/150

f 150/150/150 153/153/153 152/152/152

f 154/154/154 152/152/152 153/153/153

f 153/153/153 155/155/155 154/154/154

f 155/155/155 156/156/156 154/154/154

f 145/145/145 142/142/142 157/157/157

f 158/158/158 145/145/145 157/157/157

f 159/159/159 157/157/157 142/142/142

f 157/157/157 160/160/160 158/158/158

f 142/142/142 161/161/161 159/159/159

f 158/158/158 160/160/160 162/162/162

f 159/159/159 161/161/161 163/163/163

f 160/160/160 164/164/164 162/162/162

f 161/161/161 165/165/165 163/163/163

f 166/166/166 162/162/162 164/164/164

f 167/167/167 163/163/163 165/165/165

f 164/164/164 168/168/168 166/166/166

f 165/165/165 169/169/169 167/167/167

f 170/170/170 166/166/166 168/168/168

f 171/171/171 167/167/167 169/169/169

f 168/168/168 172/172/172 170/170/170

f 169/169/169 173/173/173 171/171/171

f 174/174/174 170/170/170 172/172/172

f 171/171/171 173/173/173 175/175/175

f 172/172/172 176/176/176 174/174/174

f 173/173/173 177/177/177 175/175/175

f 178/178/178 174/174/174 176/176/176

f 175/175/175 177/177/177 179/179/179

f 176/176/176 180/180/180 178/178/178

f 180/180/180 181/181/181 178/178/178

f 177/177/177 182/182/182 179/179/179

f 183/183/183 179/179/179 182/182/182

f 182/182/182 184/184/184 183/183/183

f 185/185/185 186/186/186 187/187/187

f 185/185/185 188/188/188 186/186/186

f 188/188/188 189/189/189 186/186/186

f 188/188/188 190/190/190 189/189/189

f 191/191/191 189/189/189 190/190/190

f 191/191/191 190/190/190 192/192/192

f 191/191/191 192/192/192 193/193/193

f 194/194/194 193/193/193 195/195/195

f 194/194/194 196/196/196 193/193/193

f 191/191/191 193/193/193 196/196/196

f 196/196/196 197/197/197 191/191/191

f 198/198/198 191/191/191 197/197/197

f 199/199/199 198/198/198 197/197/197

f 199/199/199 197/197/197 200/200/200

f 199/199/199 200/200/200 201/201/201

f 202/202/202 198/198/198 199/199/199

f 203/203/203 198/198/198 202/202/202

f 203/203/203 204/204/204 198/198/198

f 205/205/205 204/204/204 203/203/203

f 205/205/205 206/206/206 204/204/204

f 207/207/207 206/206/206 205/205/205

f 207/207/207 208/208/208 206/206/206

f 209/209/209 208/208/208 207/207/207

f 209/209/209 210/210/210 208/208/208

f 211/211/211 210/210/210 209/209/209

f 211/211/211 212/212/212 210/210/210

f 213/213/213 212/212/212 211/211/211

f 213/213/213 214/214/214 212/212/212

f 214/214/214 213/213/213 215/215/215

f 214/214/214 215/215/215 216/216/216

f 217/217/217 216/216/216 215/215/215

f 217/217/217 218/218/218 216/216/216

f 219/219/219 218/218/218 217/217/217

f 219/219/219 220/220/220 218/218/218

f 221/221/221 220/220/220 219/219/219

f 221/221/221 219/219/219 222/222/222

f 223/223/223 221/221/221 222/222/222

f 223/223/223 222/222/222 224/224/224

f 225/225/225 223/223/223 224/224/224

f 225/225/225 224/224/224 226/226/226

f 227/227/227 225/225/225 226/226/226

f 227/227/227 228/228/228 225/225/225

f 227/227/227 229/229/229 228/228/228

f 227/227/227 230/230/230 229/229/229

f 231/231/231 229/229/229 230/230/230

f 231/231/231 230/230/230 232/232/232

f 232/232/232 233/233/233 231/231/231

f 232/232/232 234/234/234 233/233/233

f 235/235/235 233/233/233 234/234/234

f 235/235/235 234/234/234 236/236/236

f 237/237/237 235/235/235 236/236/236

f 237/237/237 236/236/236 238/238/238

f 239/239/239 237/237/237 238/238/238

f 239/239/239 238/238/238 240/240/240

f 241/241/241 239/239/239 240/240/240

f 241/241/241 240/240/240 242/242/242

f 243/243/243 241/241/241 242/242/242

f 243/243/243 242/242/242 244/244/244

f 244/244/244 245/245/245 243/243/243

f 244/244/244 246/246/246 245/245/245

f 246/246/246 247/247/247 245/245/245

f 246/246/246 248/248/248 247/247/247

f 249/249/249 247/247/247 248/248/248

f 249/249/249 250/250/250 247/247/247

f 251/251/251 250/250/250 249/249/249

f 251/251/251 249/249/249 252/252/252

f 253/253/253 251/251/251 252/252/252

f 253/253/253 252/252/252 254/254/254

f 255/255/255 256/256/256 257/257/257

f 255/255/255 258/258/258 256/256/256

f 259/259/259 258/258/258 255/255/255

f 259/259/259 260/260/260 258/258/258

f 259/259/259 261/261/261 260/260/260

f 259/259/259 262/262/262 261/261/261

f 262/262/262 263/263/263 261/261/261

f 262/262/262 264/264/264 263/263/263

f 265/265/265 263/263/263 264/264/264

f 265/265/265 266/266/266 263/263/263

f 267/267/267 266/266/266 265/265/265

f 267/267/267 268/268/268 266/266/266

f 267/267/267 269/269/269 268/268/268

f 267/267/267 270/270/270 269/269/269

f 271/271/271 269/269/269 270/270/270

f 271/271/271 272/272/272 269/269/269

f 271/271/271 273/273/273 272/272/272

f 271/271/271 274/274/274 273/273/273

f 274/274/274 275/275/275 273/273/273

f 274/274/274 276/276/276 275/275/275

f 276/276/276 277/277/277 275/275/275

f 276/276/276 278/278/278 277/277/277

f 278/278/278 279/279/279 277/277/277

f 278/278/278 280/280/280 279/279/279

f 281/281/281 279/279/279 280/280/280

f 281/281/281 282/282/282 279/279/279

f 283/283/283 282/282/282 281/281/281

f 283/283/283 284/284/284 282/282/282

f 285/285/285 284/284/284 283/283/283

f 285/285/285 286/286/286 284/284/284

f 287/287/287 286/286/286 285/285/285

f 287/287/287 288/288/288 286/286/286

f 289/289/289 288/288/288 287/287/287

f 289/289/289 290/290/290 288/288/288

f 289/289/289 291/291/291 290/290/290

f 289/289/289 292/292/292 291/291/291

f 293/293/293 291/291/291 292/292/292

f 293/293/293 294/294/294 291/291/291

f 293/293/293 295/295/295 294/294/294

f 293/293/293 296/296/296 295/295/295

f 296/296/296 297/297/297 295/295/295

f 296/296/296 298/298/298 297/297/297

f 299/299/299 297/297/297 298/298/298

f 299/299/299 300/300/300 297/297/297

f 301/301/301 300/300/300 299/299/299

f 301/301/301 302/302/302 300/300/300

f 303/303/303 302/302/302 301/301/301

f 303/303/303 304/304/304 302/302/302

f 303/303/303 305/305/305 304/304/304

f 303/303/303 306/306/306 305/305/305

f 307/307/307 305/305/305 306/306/306

f 307/307/307 308/308/308 305/305/305

f 309/309/309 308/308/308 307/307/307

f 309/309/309 310/310/310 308/308/308

f 309/309/309 311/311/311 310/310/310

f 309/309/309 312/312/312 311/311/311

f 312/312/312 313/313/313 311/311/311

f 312/312/312 314/314/314 313/313/313

f 315/315/315 313/313/313 314/314/314

f 315/315/315 316/316/316 313/313/313

f 317/317/317 316/316/316 315/315/315

f 317/317/317 318/318/318 316/316/316

f 319/319/319 318/318/318 317/317/317

f 319/319/319 320/320/320 318/318/318

f 319/319/319 321/321/321 320/320/320

f 319/319/319 322/322/322 321/321/321

f 322/322/322 323/323/323 321/321/321

f 322/322/322 324/324/324 323/323/323

f 325/325/325 326/326/326 327/327/327

f 325/325/325 328/328/328 326/326/326

f 328/328/328 329/329/329 326/326/326

f 328/328/328 330/330/330 329/329/329

f 329/329/329 330/330/330 331/331/331

f 329/329/329 331/331/331 332/332/332

f 332/332/332 331/331/331 333/333/333

f 332/332/332 333/333/333 334/334/334

f 333/333/333 335/335/335 334/334/334

f 333/333/333 336/336/336 335/335/335

f 336/336/336 337/337/337 335/335/335

f 336/336/336 338/338/338 337/337/337

f 337/337/337 338/338/338 339/339/339

f 337/337/337 339/339/339 340/340/340

f 339/339/339 341/341/341 340/340/340

f 339/339/339 342/342/342 341/341/341

f 341/341/341 342/342/342 343/343/343

f 341/341/341 343/343/343 344/344/344

f 344/344/344 343/343/343 345/345/345

f 344/344/344 345/345/345 346/346/346

f 346/346/346 345/345/345 347/347/347

f 346/346/346 347/347/347 348/348/348

f 348/348/348 347/347/347 349/349/349

f 348/348/348 349/349/349 350/350/350

f 349/349/349 351/351/351 350/350/350

f 349/349/349 352/352/352 351/351/351

f 352/352/352 353/353/353 351/351/351

f 352/352/352 354/354/354 353/353/353

f 354/354/354 355/355/355 353/353/353

f 354/354/354 356/356/356 355/355/355

f 356/356/356 357/357/357 355/355/355

f 356/356/356 358/358/358 357/357/357

f 358/358/358 359/359/359 357/357/357

f 358/358/358 360/360/360 359/359/359

f 359/359/359 360/360/360 361/361/361

f 359/359/359 361/361/361 362/362/362

f 361/361/361 363/363/363 362/362/362

f 361/361/361 364/364/364 363/363/363

f 363/363/363 364/364/364 365/365/365

f 363/363/363 365/365/365 366/366/366

f 366/366/366 365/365/365 367/367/367

f 366/366/366 367/367/367 368/368/368

f 367/367/367 369/369/369 368/368/368

f 367/367/367 370/370/370 369/369/369

f 370/370/370 371/371/371 369/369/369

f 370/370/370 372/372/372 371/371/371

f 372/372/372 373/373/373 371/371/371

f 372/372/372 374/374/374 373/373/373

f 373/373/373 374/374/374 375/375/375

f 373/373/373 375/375/375 376/376/376

f 375/375/375 377/377/377 376/376/376

f 375/375/375 378/378/378 377/377/377

f 378/378/378 379/379/379 377/377/377

f 378/378/378 380/380/380 379/379/379

f 379/379/379 380/380/380 381/381/381

f 379/379/379 381/381/381 382/382/382

f 382/382/382 381/381/381 383/383/383

f 382/382/382 383/383/383 384/384/384

f 383/383/383 385/385/385 384/384/384

f 383/383/383 386/386/386 385/385/385

f 386/386/386 387/387/387 385/385/385

f 386/386/386 388/388/388 387/387/387

f 388/388/388 389/389/389 387/387/387

f 388/388/388 390/390/390 389/389/389

f 389/389/389 390/390/390 391/391/391

f 389/389/389 391/391/391 392/392/392

f 392/392/392 391/391/391 393/393/393

f 392/392/392 393/393/393 394/394/394

f 395/395/395 396/396/396 397/397/397

f 395/395/395 397/397/397 398/398/398

f 399/399/399 395/395/395 398/398/398

f 399/399/399 398/398/398 400/400/400

f 401/401/401 399/399/399 400/400/400

f 401/401/401 400/400/400 402/402/402

f 402/402/402 403/403/403 401/401/401

f 402/402/402 404/404/404 403/403/403

f 404/404/404 405/405/405 403/403/403

f 404/404/404 406/406/406 405/405/405

f 407/407/407 405/405/405 406/406/406

f 407/407/407 406/406/406 408/408/408

f 407/407/407 408/408/408 409/409/409

f 407/407/407 409/409/409 410/410/410

f 410/410/410 409/409/409 411/411/411

f 410/410/410 411/411/411 412/412/412

f 412/412/412 411/411/411 413/413/413

f 412/412/412 413/413/413 414/414/414

f 415/415/415 414/414/414 413/413/413

f 415/415/415 413/413/413 416/416/416

f 417/417/417 415/415/415 416/416/416

f 417/417/417 418/418/418 415/415/415

f 419/419/419 418/418/418 417/417/417

f 419/419/419 420/420/420 418/418/418

f 420/420/420 419/419/419 421/421/421

f 420/420/420 421/421/421 422/422/422

f 422/422/422 421/421/421 423/423/423

f 422/422/422 423/423/423 424/424/424

f 424/424/424 423/423/423 425/425/425

f 424/424/424 425/425/425 426/426/426

f 426/426/426 425/425/425 427/427/427

f 426/426/426 427/427/427 428/428/428

f 428/428/428 427/427/427 429/429/429

f 428/428/428 429/429/429 430/430/430

f 430/430/430 429/429/429 431/431/431

f 430/430/430 431/431/431 432/432/432

f 433/433/433 432/432/432 431/431/431

f 433/433/433 434/434/434 432/432/432

f 434/434/434 433/433/433 435/435/435

f 434/434/434 435/435/435 436/436/436

f 437/437/437 436/436/436 435/435/435

f 437/437/437 435/435/435 438/438/438

f 437/437/437 438/438/438 439/439/439

f 437/437/437 439/439/439 440/440/440

f 440/440/440 439/439/439 441/441/441

f 440/440/440 441/441/441 442/442/442

f 442/442/442 441/441/441 443/443/443

f 442/442/442 443/443/443 444/444/444

f 444/444/444 443/443/443 445/445/445

f 444/444/444 445/445/445 446/446/446

f 447/447/447 446/446/446 445/445/445

f 447/447/447 448/448/448 446/446/446

f 449/449/449 448/448/448 447/447/447

f 449/449/449 450/450/450 448/448/448

f 451/451/451 450/450/450 449/449/449

f 451/451/451 449/449/449 452/452/452

f 452/452/452 453/453/453 451/451/451

f 452/452/452 454/454/454 453/453/453

f 454/454/454 455/455/455 453/453/453

f 454/454/454 456/456/456 455/455/455

f 457/457/457 458/458/458 459/459/459

f 457/457/457 460/460/460 458/458/458

f 457/457/457 461/461/461 460/460/460

f 457/457/457 462/462/462 461/461/461

f 463/463/463 461/461/461 462/462/462

f 463/463/463 464/464/464 461/461/461

f 463/463/463 465/465/465 464/464/464

f 463/463/463 466/466/466 465/465/465

f 467/467/467 465/465/465 466/466/466

f 467/467/467 468/468/468 465/465/465

f 469/469/469 468/468/468 467/467/467

f 469/469/469 470/470/470 468/468/468

f 471/471/471 470/470/470 469/469/469

f 471/471/471 472/472/472 470/470/470

f 473/473/473 472/472/472 471/471/471

f 473/473/473 474/474/474 472/472/472

f 473/473/473 475/475/475 474/474/474

f 473/473/473 476/476/476 475/475/475

f 476/476/476 477/477/477 475/475/475

f 476/476/476 478/478/478 477/477/477

f 479/479/479 477/477/477 478/478/478

f 479/479/479 480/480/480 477/477/477

f 479/479/479 481/481/481 480/480/480

f 479/479/479 482/482/482 481/481/481

f 483/483/483 481/481/481 482/482/482

f 483/483/483 484/484/484 481/481/481

f 483/483/483 485/485/485 484/484/484

f 483/483/483 486/486/486 485/485/485

f 487/487/487 485/485/485 486/486/486

f 487/487/487 488/488/488 485/485/485

f 489/489/489 488/488/488 487/487/487

f 489/489/489 490/490/490 488/488/488

f 489/489/489 491/491/491 490/490/490

f 489/489/489 492/492/492 491/491/491

f 493/493/493 491/491/491 492/492/492

f 493/493/493 494/494/494 491/491/491

f 493/493/493 495/495/495 494/494/494

f 493/493/493 496/496/496 495/495/495

f 496/496/496 497/497/497 495/495/495

f 496/496/496 498/498/498 497/497/497

f 498/498/498 499/499/499 497/497/497

f 498/498/498 500/500/500 499/499/499

f 500/500/500 501/501/501 499/499/499

f 500/500/500 502/502/502 501/501/501

f 503/503/503 501/501/501 502/502/502

f 503/503/503 504/504/504 501/501/501

f 503/503/503 505/505/505 504/504/504

f 503/503/503 506/506/506 505/505/505

f 507/507/507 505/505/505 506/506/506

f 507/507/507 508/508/508 505/505/505

f 507/507/507 509/509/509 508/508/508

f 507/507/507 510/510/510 509/509/509

f 510/510/510 511/511/511 509/509/509

f 510/510/510 512/512/512 511/511/511

f 513/513/513 511/511/511 512/512/512

f 513/513/513 514/514/514 511/511/511

f 515/515/515 514/514/514 513/513/513

f 515/515/515 516/516/516 514/514/514

f 515/515/515 517/517/517 516/516/516

f 515/515/515 518/518/518 517/517/517

f 519/519/519 517/517/517 518/518/518

f 519/519/519 520/520/520 517/517/517

f 519/519/519 521/521/521 520/520/520

f 519/519/519 522/522/522 521/521/521

f 522/522/522 523/523/523 521/521/521

f 522/522/522 524/524/524 523/523/523

f 525/525/525 523/523/523 524/524/524

f 525/525/525 526/526/526 523/523/523

f 527/527/527 528/528/528 529/529/529

f 527/527/527 530/530/530 528/528/528

f 528/528/528 530/530/530 531/531/531

f 528/528/528 531/531/531 532/532/532

f 531/531/531 533/533/533 532/532/532

f 531/531/531 534/534/534 533/533/533

f 533/533/533 534/534/534 535/535/535

f 533/533/533 535/535/535 536/536/536

f 535/535/535 537/537/537 536/536/536

f 535/535/535 538/538/538 537/537/537

f 538/538/538 539/539/539 537/537/537

f 538/538/538 540/540/540 539/539/539

f 540/540/540 541/541/541 539/539/539

f 540/540/540 542/542/542 541/541/541

f 542/542/542 543/543/543 541/541/541

f 542/542/542 544/544/544 543/543/543

f 543/543/543 544/544/544 545/545/545

f 543/543/543 545/545/545 546/546/546

f 546/546/546 545/545/545 547/547/547

f 546/546/546 547/547/547 548/548/548

f 547/547/547 549/549/549 548/548/548

f 547/547/547 550/550/550 549/549/549

f 549/549/549 550/550/550 551/551/551

f 549/549/549 551/551/551 552/552/552

f 551/551/551 553/553/553 552/552/552

f 551/551/551 554/554/554 553/553/553

f 553/553/553 554/554/554 555/555/555

f 553/553/553 555/555/555 556/556/556

f 555/555/555 557/557/557 556/556/556

f 555/555/555 558/558/558 557/557/557

f 558/558/558 559/559/559 557/557/557

f 558/558/558 560/560/560 559/559/559

f 559/559/559 560/560/560 561/561/561

f 559/559/559 561/561/561 562/562/562

f 561/561/561 563/563/563 562/562/562

f 561/561/561 564/564/564 563/563/563

f 563/563/563 564/564/564 565/565/565

f 563/563/563 565/565/565 566/566/566

f 566/566/566 565/565/565 567/567/567

f 566/566/566 567/567/567 568/568/568

f 568/568/568 567/567/567 569/569/569

f 568/568/568 569/569/569 570/570/570

f 570/570/570 569/569/569 571/571/571

f 570/570/570 571/571/571 572/572/572

f 571/571/571 573/573/573 572/572/572

f 571/571/571 574/574/574 573/573/573

f 573/573/573 574/574/574 575/575/575

f 573/573/573 575/575/575 576/576/576

f 575/575/575 577/577/577 576/576/576

f 575/575/575 578/578/578 577/577/577

f 577/577/577 578/578/578 579/579/579

f 577/577/577 579/579/579 580/580/580

f 580/580/580 579/579/579 581/581/581

f 580/580/580 581/581/581 582/582/582

f 581/581/581 583/583/583 582/582/582

f 581/581/581 584/584/584 583/583/583

f 584/584/584 585/585/585 583/583/583

f 584/584/584 586/586/586 585/585/585

f 585/585/585 586/586/586 587/587/587

f 585/585/585 587/587/587 588/588/588

f 587/587/587 589/589/589 588/588/588

f 587/587/587 590/590/590 589/589/589

f 589/589/589 590/590/590 591/591/591

f 589/589/589 591/591/591 592/592/592

f 592/592/592 591/591/591 593/593/593

f 592/592/592 593/593/593 594/594/594

f 593/593/593 595/595/595 594/594/594

f 593/593/593 596/596/596 595/595/595

f 597/597/597 598/598/598 599/599/599

f 597/597/597 599/599/599 600/600/600

f 601/601/601 597/597/597 600/600/600

f 602/602/602 601/601/601 600/600/600

f 603/603/603 602/602/602 600/600/600

f 599/599/599 604/604/604 600/600/600

f 605/605/605 600/600/600 604/604/604

f 606/606/606 605/605/605 604/604/604

f 604/604/604 607/607/607 606/606/606

f 608/608/608 606/606/606 607/607/607

f 607/607/607 609/609/609 608/608/608

f 609/609/609 610/610/610 608/608/608

f 611/611/611 612/612/612 608/608/608

f 611/611/611 608/608/608 610/610/610

f 610/610/610 613/613/613 611/611/611

f 610/610/610 614/614/614 613/613/613

f 613/613/613 615/615/615 611/611/611

f 616/616/616 617/617/617 618/618/618

f 619/619/619 616/616/616 618/618/618

f 620/620/620 619/619/619 618/618/618

f 618/618/618 621/621/621 620/620/620

f 622/622/622 621/621/621 618/618/618

f 623/623/623 620/620/620 621/621/621

f 624/624/624 623/623/623 621/621/621

f 621/621/621 625/625/625 624/624/624

f 626/626/626 624/624/624 625/625/625

f 625/625/625 627/627/627 626/626/626

f 627/627/627 628/628/628 626/626/626

f 629/629/629 626/626/626 628/628/628

f 630/630/630 631/631/631 629/629/629

f 630/630/630 629/629/629 628/628/628

f 628/628/628 632/632/632 630/630/630

f 628/628/628 633/633/633 632/632/632

f 632/632/632 634/634/634 630/630/630

f 635/635/635 636/636/636 637/637/637

f 638/638/638 635/635/635 637/637/637

f 639/639/639 638/638/638 637/637/637

f 637/637/637 640/640/640 641/641/641

f 637/637/637 641/641/641 639/639/639

f 641/641/641 642/642/642 639/639/639

f 643/643/643 639/639/639 642/642/642

f 642/642/642 644/644/644 643/643/643

f 645/645/645 643/643/643 644/644/644

f 646/646/646 645/645/645 644/644/644

f 647/647/647 645/645/645 646/646/646

f 648/648/648 647/647/647 646/646/646

f 649/649/649 648/648/648 650/650/650

f 650/650/650 648/648/648 646/646/646

f 646/646/646 651/651/651 650/650/650

f 646/646/646 652/652/652 651/651/651

f 653/653/653 650/650/650 651/651/651

f 654/654/654 655/655/655 656/656/656

f 655/655/655 657/657/657 658/658/658

f 659/659/659 656/656/656 655/655/655

f 655/655/655 658/658/658 659/659/659

f 659/659/659 660/660/660 656/656/656

f 658/658/658 661/661/661 659/659/659

f 661/661/661 662/662/662 659/659/659

f 659/659/659 662/662/662 663/663/663

f 662/662/662 664/664/664 663/663/663

f 665/665/665 663/663/663 664/664/664

f 664/664/664 666/666/666 665/665/665

f 667/667/667 665/665/665 666/666/666

f 668/668/668 669/669/669 667/667/667

f 668/668/668 667/667/667 666/666/666

f 666/666/666 670/670/670 668/668/668

f 671/671/671 670/670/670 666/666/666

f 670/670/670 672/672/672 668/668/668

